G04 Layer_Color=16711935*
%FSLAX24Y24*%
%MOIN*%
G70*
G01*
G75*
%ADD21C,0.0050*%
%ADD47C,0.0690*%
%ADD48R,0.0690X0.0690*%
%ADD49C,0.0749*%
%ADD50R,0.0749X0.0749*%
%ADD51C,0.0730*%
%ADD52R,0.0730X0.0730*%
%ADD53R,0.0749X0.0749*%
%ADD54C,0.0827*%
%ADD55C,0.1300*%
D21*
X38740Y10000D02*
Y20960D01*
X10000Y10000D02*
X38740D01*
X10000Y20960D02*
X38740D01*
X10000Y10000D02*
Y20960D01*
D47*
X30846Y16154D02*
D03*
X35846D02*
D03*
X30846Y15154D02*
D03*
Y14154D02*
D03*
Y13154D02*
D03*
Y12154D02*
D03*
Y17154D02*
D03*
Y18154D02*
D03*
X35846Y17154D02*
D03*
Y18154D02*
D03*
Y19154D02*
D03*
Y15154D02*
D03*
Y14154D02*
D03*
Y13154D02*
D03*
Y12154D02*
D03*
D48*
X30846Y19154D02*
D03*
D49*
X21419Y13465D02*
D03*
X20419D02*
D03*
X19419D02*
D03*
X17419D02*
D03*
X18419D02*
D03*
X37874Y17154D02*
D03*
Y15154D02*
D03*
Y16154D02*
D03*
X34362Y17244D02*
D03*
X33362D02*
D03*
X34346Y15457D02*
D03*
X33346D02*
D03*
X34362Y13669D02*
D03*
X33362D02*
D03*
D50*
X16419Y13465D02*
D03*
X32362Y17244D02*
D03*
X32346Y15457D02*
D03*
X32362Y13669D02*
D03*
D51*
X12961Y10984D02*
D03*
X14961D02*
D03*
X15961D02*
D03*
X16961D02*
D03*
X17961D02*
D03*
X18961D02*
D03*
X19961D02*
D03*
X21961D02*
D03*
X22961D02*
D03*
X23961D02*
D03*
X24961D02*
D03*
X25961D02*
D03*
X26961D02*
D03*
X12961Y19984D02*
D03*
X14961D02*
D03*
X15961D02*
D03*
X16961D02*
D03*
X18961D02*
D03*
X19961D02*
D03*
X20961D02*
D03*
X21961D02*
D03*
X22961D02*
D03*
X23961D02*
D03*
X24961D02*
D03*
X25961D02*
D03*
X26961D02*
D03*
D52*
X13961Y10984D02*
D03*
X20961D02*
D03*
X13961Y19984D02*
D03*
X17961D02*
D03*
D53*
X37874Y14154D02*
D03*
D54*
X10854Y15193D02*
D03*
D55*
X10984Y10984D02*
D03*
X37756Y19976D02*
D03*
M02*
