G04 Layer_Physical_Order=1*
G04 Layer_Color=255*
%FSLAX24Y24*%
%MOIN*%
G70*
G01*
G75*
%ADD10R,0.0319X0.0280*%
%ADD11R,0.0512X0.0374*%
%ADD12R,0.0520X0.0386*%
%ADD13R,0.0280X0.0319*%
G04:AMPARAMS|DCode=14|XSize=31.9mil|YSize=28mil|CornerRadius=0mil|HoleSize=0mil|Usage=FLASHONLY|Rotation=45.000|XOffset=0mil|YOffset=0mil|HoleType=Round|Shape=Rectangle|*
%AMROTATEDRECTD14*
4,1,4,-0.0014,-0.0212,-0.0212,-0.0014,0.0014,0.0212,0.0212,0.0014,-0.0014,-0.0212,0.0*
%
%ADD14ROTATEDRECTD14*%

G04:AMPARAMS|DCode=15|XSize=199.2mil|YSize=83.1mil|CornerRadius=10.4mil|HoleSize=0mil|Usage=FLASHONLY|Rotation=270.000|XOffset=0mil|YOffset=0mil|HoleType=Round|Shape=RoundedRectangle|*
%AMROUNDEDRECTD15*
21,1,0.1992,0.0623,0,0,270.0*
21,1,0.1784,0.0831,0,0,270.0*
1,1,0.0208,-0.0312,-0.0892*
1,1,0.0208,-0.0312,0.0892*
1,1,0.0208,0.0312,0.0892*
1,1,0.0208,0.0312,-0.0892*
%
%ADD15ROUNDEDRECTD15*%
%ADD16R,0.2398X0.2217*%
%ADD17R,0.1114X0.0382*%
%ADD18R,0.2441X0.1535*%
%ADD19R,0.1732X0.1299*%
%ADD20C,0.0394*%
%ADD21C,0.0050*%
%ADD22C,0.0650*%
%ADD23R,0.0650X0.0650*%
%ADD24C,0.0709*%
%ADD25R,0.0709X0.0709*%
%ADD26C,0.0690*%
%ADD27R,0.0690X0.0690*%
%ADD28R,0.0709X0.0709*%
%ADD29C,0.0787*%
%ADD30C,0.1260*%
%ADD31C,0.0500*%
G36*
X37366Y20655D02*
X37332Y20637D01*
X37321Y20627D01*
X37320Y20627D01*
X37307Y20620D01*
X37211Y20542D01*
X37202Y20530D01*
X37190Y20520D01*
X37111Y20424D01*
X37104Y20411D01*
X37104Y20411D01*
X37095Y20399D01*
X37036Y20290D01*
X37032Y20276D01*
X37025Y20262D01*
X36989Y20144D01*
X36987Y20129D01*
X36983Y20114D01*
X36971Y19991D01*
X36972Y19976D01*
X36971Y19961D01*
X36983Y19837D01*
X36987Y19823D01*
X36989Y19808D01*
X37025Y19689D01*
X37032Y19676D01*
X37036Y19661D01*
X37095Y19552D01*
X37104Y19540D01*
X37104Y19540D01*
X37111Y19527D01*
X37190Y19431D01*
X37202Y19422D01*
X37211Y19410D01*
X37307Y19331D01*
X37320Y19324D01*
X37321Y19324D01*
X37332Y19315D01*
X37442Y19256D01*
X37456Y19252D01*
X37469Y19245D01*
X37588Y19209D01*
X37603Y19207D01*
X37617Y19203D01*
X37741Y19191D01*
X37748Y19191D01*
X37756Y19190D01*
X37763Y19191D01*
X37771Y19191D01*
X37894Y19203D01*
X37909Y19207D01*
X37924Y19209D01*
X38043Y19245D01*
X38056Y19252D01*
X38070Y19256D01*
X38180Y19315D01*
X38191Y19324D01*
X38191Y19324D01*
X38205Y19331D01*
X38300Y19410D01*
X38310Y19422D01*
X38322Y19431D01*
X38400Y19527D01*
X38408Y19540D01*
X38408Y19540D01*
X38417Y19552D01*
X38435Y19586D01*
X38485Y19573D01*
Y10255D01*
X11387D01*
X11374Y10305D01*
X11408Y10323D01*
X11420Y10333D01*
X11420Y10333D01*
X11433Y10340D01*
X11529Y10418D01*
X11538Y10430D01*
X11550Y10440D01*
X11629Y10536D01*
X11636Y10549D01*
X11636Y10549D01*
X11645Y10560D01*
X11704Y10670D01*
X11708Y10684D01*
X11715Y10698D01*
X11751Y10816D01*
X11753Y10831D01*
X11757Y10846D01*
X11769Y10969D01*
X11768Y10984D01*
X11769Y10999D01*
X11757Y11123D01*
X11753Y11137D01*
X11751Y11152D01*
X11715Y11271D01*
X11708Y11284D01*
X11704Y11299D01*
X11645Y11408D01*
X11636Y11420D01*
X11636Y11420D01*
X11629Y11433D01*
X11550Y11529D01*
X11538Y11538D01*
X11529Y11550D01*
X11433Y11629D01*
X11420Y11636D01*
X11420Y11636D01*
X11408Y11645D01*
X11299Y11704D01*
X11284Y11708D01*
X11271Y11715D01*
X11152Y11751D01*
X11137Y11753D01*
X11123Y11757D01*
X10999Y11769D01*
X10992Y11769D01*
X10984Y11770D01*
X10977Y11769D01*
X10969Y11769D01*
X10846Y11757D01*
X10831Y11753D01*
X10816Y11751D01*
X10698Y11715D01*
X10684Y11708D01*
X10670Y11704D01*
X10560Y11645D01*
X10549Y11636D01*
X10549Y11636D01*
X10536Y11629D01*
X10440Y11550D01*
X10430Y11538D01*
X10418Y11529D01*
X10340Y11433D01*
X10333Y11420D01*
X10333Y11420D01*
X10323Y11408D01*
X10305Y11374D01*
X10255Y11387D01*
Y20705D01*
X37354D01*
X37366Y20655D01*
D02*
G37*
%LPC*%
G36*
X32781Y13594D02*
X32437D01*
Y13250D01*
X32717D01*
X32762Y13269D01*
X32781Y13315D01*
Y13594D01*
D02*
G37*
G36*
X32287D02*
X31943D01*
Y13315D01*
X31962Y13269D01*
X32008Y13250D01*
X32287D01*
Y13594D01*
D02*
G37*
G36*
X24567Y14510D02*
X24331D01*
Y13526D01*
X24734D01*
Y14343D01*
X24722Y14407D01*
X24686Y14461D01*
X24631Y14497D01*
X24567Y14510D01*
D02*
G37*
G36*
X24181D02*
X23944D01*
X23880Y14497D01*
X23826Y14461D01*
X23790Y14407D01*
X23777Y14343D01*
Y13526D01*
X24181D01*
Y14510D01*
D02*
G37*
G36*
X12275Y13486D02*
X11130D01*
X11084Y13467D01*
X11065Y13421D01*
Y12729D01*
X12275D01*
Y13486D01*
D02*
G37*
G36*
X24734Y13376D02*
X24331D01*
Y12392D01*
X24567D01*
X24631Y12404D01*
X24686Y12440D01*
X24722Y12495D01*
X24734Y12559D01*
Y13376D01*
D02*
G37*
G36*
X21827Y13390D02*
X21494D01*
Y13057D01*
X21527Y13061D01*
X21628Y13103D01*
X21715Y13169D01*
X21781Y13256D01*
X21823Y13356D01*
X21827Y13390D01*
D02*
G37*
G36*
X21344D02*
X21011D01*
X21016Y13356D01*
X21057Y13256D01*
X21124Y13169D01*
X21210Y13103D01*
X21311Y13061D01*
X21344Y13057D01*
Y13390D01*
D02*
G37*
G36*
X32766Y15382D02*
X32421D01*
Y15037D01*
X32701D01*
X32747Y15056D01*
X32766Y15102D01*
Y15382D01*
D02*
G37*
G36*
X37874Y17662D02*
X37742Y17645D01*
X37620Y17594D01*
X37514Y17513D01*
X37433Y17408D01*
X37383Y17285D01*
X37365Y17154D01*
X37383Y17022D01*
X37433Y16899D01*
X37514Y16794D01*
X37620Y16713D01*
X37698Y16681D01*
Y16626D01*
X37620Y16594D01*
X37514Y16513D01*
X37433Y16408D01*
X37383Y16285D01*
X37365Y16154D01*
X37383Y16022D01*
X37433Y15899D01*
X37514Y15794D01*
X37620Y15713D01*
X37698Y15681D01*
Y15626D01*
X37620Y15594D01*
X37514Y15513D01*
X37433Y15408D01*
X37383Y15285D01*
X37365Y15154D01*
X37383Y15022D01*
X37433Y14899D01*
X37514Y14794D01*
X37620Y14713D01*
X37625Y14711D01*
X37615Y14661D01*
X37520D01*
X37461Y14649D01*
X37412Y14616D01*
X37410Y14616D01*
X36625Y15401D01*
X36553Y15457D01*
X36469Y15491D01*
X36378Y15503D01*
X36170D01*
X36086Y15568D01*
X35970Y15616D01*
X35878Y15628D01*
Y15679D01*
X35970Y15691D01*
X36086Y15739D01*
X36185Y15815D01*
X36261Y15914D01*
X36309Y16030D01*
X36325Y16154D01*
X36309Y16277D01*
X36261Y16393D01*
X36185Y16492D01*
X36086Y16568D01*
X35970Y16616D01*
X35878Y16628D01*
Y16679D01*
X35970Y16691D01*
X36086Y16739D01*
X36185Y16815D01*
X36261Y16914D01*
X36309Y17030D01*
X36325Y17154D01*
X36309Y17277D01*
X36261Y17393D01*
X36185Y17492D01*
X36086Y17568D01*
X35970Y17616D01*
X35846Y17632D01*
X35723Y17616D01*
X35607Y17568D01*
X35508Y17492D01*
X35432Y17393D01*
X35384Y17277D01*
X35368Y17154D01*
X35384Y17030D01*
X35432Y16914D01*
X35508Y16815D01*
X35607Y16739D01*
X35723Y16691D01*
X35815Y16679D01*
Y16628D01*
X35723Y16616D01*
X35607Y16568D01*
X35508Y16492D01*
X35432Y16393D01*
X35384Y16277D01*
X35368Y16154D01*
X35384Y16030D01*
X35432Y15914D01*
X35508Y15815D01*
X35607Y15739D01*
X35723Y15691D01*
X35815Y15679D01*
Y15628D01*
X35723Y15616D01*
X35607Y15568D01*
X35508Y15492D01*
X35432Y15393D01*
X35384Y15277D01*
X35368Y15154D01*
X35384Y15030D01*
X35432Y14914D01*
X35508Y14815D01*
X35607Y14739D01*
X35723Y14691D01*
X35815Y14679D01*
Y14628D01*
X35723Y14616D01*
X35607Y14568D01*
X35508Y14492D01*
X35432Y14393D01*
X35384Y14277D01*
X35368Y14154D01*
X35384Y14030D01*
X35432Y13914D01*
X35508Y13815D01*
X35607Y13739D01*
X35723Y13691D01*
X35815Y13679D01*
Y13628D01*
X35723Y13616D01*
X35607Y13568D01*
X35508Y13492D01*
X35432Y13393D01*
X35384Y13277D01*
X35368Y13154D01*
X35384Y13030D01*
X35432Y12914D01*
X35508Y12815D01*
X35607Y12739D01*
X35723Y12691D01*
X35846Y12675D01*
X35970Y12691D01*
X36086Y12739D01*
X36185Y12815D01*
X36261Y12914D01*
X36309Y13030D01*
X36325Y13154D01*
X36309Y13277D01*
X36261Y13393D01*
X36185Y13492D01*
X36086Y13568D01*
X35970Y13616D01*
X35878Y13628D01*
Y13679D01*
X35970Y13691D01*
X36086Y13739D01*
X36185Y13815D01*
X36261Y13914D01*
X36309Y14030D01*
X36325Y14154D01*
X36309Y14277D01*
X36261Y14393D01*
X36185Y14492D01*
X36086Y14568D01*
X35970Y14616D01*
X35878Y14628D01*
Y14679D01*
X35970Y14691D01*
X36086Y14739D01*
X36170Y14804D01*
X36233D01*
X37131Y13906D01*
X37203Y13851D01*
X37287Y13816D01*
X37367Y13805D01*
Y13799D01*
X37378Y13741D01*
X37412Y13691D01*
X37461Y13658D01*
X37520Y13646D01*
X38228D01*
X38287Y13658D01*
X38336Y13691D01*
X38370Y13741D01*
X38381Y13799D01*
Y14508D01*
X38370Y14566D01*
X38336Y14616D01*
X38287Y14649D01*
X38228Y14661D01*
X38133D01*
X38123Y14711D01*
X38128Y14713D01*
X38234Y14794D01*
X38315Y14899D01*
X38365Y15022D01*
X38383Y15154D01*
X38365Y15285D01*
X38315Y15408D01*
X38234Y15513D01*
X38128Y15594D01*
X38050Y15626D01*
Y15681D01*
X38128Y15713D01*
X38234Y15794D01*
X38315Y15899D01*
X38365Y16022D01*
X38383Y16154D01*
X38365Y16285D01*
X38315Y16408D01*
X38234Y16513D01*
X38128Y16594D01*
X38050Y16626D01*
Y16681D01*
X38128Y16713D01*
X38234Y16794D01*
X38315Y16899D01*
X38365Y17022D01*
X38383Y17154D01*
X38365Y17285D01*
X38315Y17408D01*
X38234Y17513D01*
X38128Y17594D01*
X38006Y17645D01*
X37874Y17662D01*
D02*
G37*
G36*
X10854Y15743D02*
X10844Y15741D01*
X10834Y15742D01*
X10732Y15728D01*
X10717Y15723D01*
X10712Y15723D01*
X10708Y15721D01*
X10693Y15718D01*
X10597Y15678D01*
X10585Y15670D01*
X10580Y15668D01*
X10576Y15665D01*
X10563Y15658D01*
X10480Y15595D01*
X10470Y15584D01*
X10467Y15581D01*
X10464Y15577D01*
X10452Y15567D01*
X10389Y15485D01*
X10382Y15471D01*
X10379Y15467D01*
X10378Y15463D01*
X10369Y15450D01*
X10329Y15354D01*
X10327Y15339D01*
X10325Y15335D01*
X10324Y15330D01*
X10319Y15316D01*
X10306Y15213D01*
X10307Y15198D01*
X10306Y15193D01*
X10307Y15188D01*
X10306Y15173D01*
X10319Y15070D01*
X10324Y15056D01*
X10325Y15051D01*
X10327Y15046D01*
X10329Y15032D01*
X10369Y14936D01*
X10378Y14923D01*
X10379Y14919D01*
X10382Y14915D01*
X10389Y14901D01*
X10452Y14819D01*
X10464Y14809D01*
X10467Y14805D01*
X10470Y14802D01*
X10480Y14791D01*
X10563Y14728D01*
X10576Y14721D01*
X10580Y14718D01*
X10585Y14716D01*
X10597Y14708D01*
X10693Y14668D01*
X10708Y14665D01*
X10712Y14663D01*
X10717Y14663D01*
X10732Y14658D01*
X10834Y14644D01*
X10844Y14645D01*
X10854Y14643D01*
X10864Y14645D01*
X10874Y14644D01*
X10977Y14658D01*
X10991Y14663D01*
X10996Y14663D01*
X11001Y14665D01*
X11016Y14668D01*
X11111Y14708D01*
X11124Y14716D01*
X11129Y14718D01*
X11132Y14721D01*
X11146Y14728D01*
X11228Y14791D01*
X11238Y14802D01*
X11242Y14805D01*
X11245Y14809D01*
X11256Y14819D01*
X11320Y14901D01*
X11326Y14915D01*
X11329Y14919D01*
X11331Y14923D01*
X11340Y14936D01*
X11379Y15032D01*
X11382Y15046D01*
X11384Y15051D01*
X11385Y15056D01*
X11390Y15070D01*
X11403Y15173D01*
X11402Y15188D01*
X11403Y15193D01*
X11402Y15198D01*
X11403Y15213D01*
X11390Y15316D01*
X11385Y15330D01*
X11384Y15335D01*
X11382Y15339D01*
X11379Y15354D01*
X11340Y15450D01*
X11331Y15463D01*
X11329Y15467D01*
X11326Y15471D01*
X11320Y15485D01*
X11256Y15567D01*
X11245Y15577D01*
X11242Y15581D01*
X11238Y15584D01*
X11228Y15595D01*
X11146Y15658D01*
X11132Y15665D01*
X11129Y15668D01*
X11124Y15670D01*
X11111Y15678D01*
X11016Y15718D01*
X11001Y15721D01*
X10996Y15723D01*
X10991Y15723D01*
X10977Y15728D01*
X10874Y15742D01*
X10864Y15741D01*
X10854Y15743D01*
D02*
G37*
G36*
X32701Y15876D02*
X32421D01*
Y15532D01*
X32766D01*
Y15811D01*
X32747Y15857D01*
X32701Y15876D01*
D02*
G37*
G36*
X21494Y13873D02*
Y13540D01*
X21827D01*
X21823Y13573D01*
X21781Y13674D01*
X21715Y13760D01*
X21628Y13826D01*
X21527Y13868D01*
X21494Y13873D01*
D02*
G37*
G36*
X21344D02*
X21311Y13868D01*
X21210Y13826D01*
X21124Y13760D01*
X21057Y13674D01*
X21016Y13573D01*
X21011Y13540D01*
X21344D01*
Y13873D01*
D02*
G37*
G36*
X32717Y14089D02*
X32437D01*
Y13744D01*
X32781D01*
Y14024D01*
X32762Y14070D01*
X32717Y14089D01*
D02*
G37*
G36*
X32287D02*
X32008D01*
X31962Y14070D01*
X31943Y14024D01*
Y13744D01*
X32287D01*
Y14089D01*
D02*
G37*
G36*
X13886Y11394D02*
X13616D01*
X13570Y11375D01*
X13551Y11329D01*
Y11059D01*
X13886D01*
Y11394D01*
D02*
G37*
G36*
X21371Y10909D02*
X21036D01*
Y10574D01*
X21306D01*
X21352Y10593D01*
X21371Y10639D01*
Y10909D01*
D02*
G37*
G36*
X14306Y11394D02*
X14036D01*
Y11059D01*
X14371D01*
Y11329D01*
X14352Y11375D01*
X14306Y11394D01*
D02*
G37*
G36*
X20886D02*
X20616D01*
X20570Y11375D01*
X20551Y11329D01*
Y11059D01*
X20886D01*
Y11394D01*
D02*
G37*
G36*
X13886Y10909D02*
X13551D01*
Y10639D01*
X13570Y10593D01*
X13616Y10574D01*
X13886D01*
Y10909D01*
D02*
G37*
G36*
X12961Y11484D02*
X12831Y11467D01*
X12711Y11417D01*
X12608Y11337D01*
X12528Y11234D01*
X12478Y11113D01*
X12461Y10984D01*
X12478Y10855D01*
X12528Y10735D01*
X12608Y10631D01*
X12711Y10552D01*
X12831Y10502D01*
X12961Y10485D01*
X13090Y10502D01*
X13210Y10552D01*
X13314Y10631D01*
X13393Y10735D01*
X13443Y10855D01*
X13460Y10984D01*
X13443Y11113D01*
X13393Y11234D01*
X13314Y11337D01*
X13210Y11417D01*
X13090Y11467D01*
X12961Y11484D01*
D02*
G37*
G36*
X20886Y10909D02*
X20551D01*
Y10639D01*
X20570Y10593D01*
X20616Y10574D01*
X20886D01*
Y10909D01*
D02*
G37*
G36*
X14371D02*
X14036D01*
Y10574D01*
X14306D01*
X14352Y10593D01*
X14371Y10639D01*
Y10909D01*
D02*
G37*
G36*
X35771Y12532D02*
X35746Y12528D01*
X35652Y12490D01*
X35572Y12428D01*
X35510Y12348D01*
X35472Y12254D01*
X35468Y12229D01*
X35771D01*
Y12532D01*
D02*
G37*
G36*
X13636Y12579D02*
X12425D01*
Y11821D01*
X13571D01*
X13617Y11840D01*
X13636Y11886D01*
Y12579D01*
D02*
G37*
G36*
X24181Y13376D02*
X23777D01*
Y12559D01*
X23790Y12495D01*
X23826Y12440D01*
X23880Y12404D01*
X23944Y12392D01*
X24181D01*
Y13376D01*
D02*
G37*
G36*
X35921Y12532D02*
Y12229D01*
X36225D01*
X36221Y12254D01*
X36183Y12348D01*
X36121Y12428D01*
X36041Y12490D01*
X35947Y12528D01*
X35921Y12532D01*
D02*
G37*
G36*
X35771Y12079D02*
X35468D01*
X35472Y12053D01*
X35510Y11959D01*
X35572Y11879D01*
X35652Y11817D01*
X35746Y11779D01*
X35771Y11775D01*
Y12079D01*
D02*
G37*
G36*
X21306Y11394D02*
X21036D01*
Y11059D01*
X21371D01*
Y11329D01*
X21352Y11375D01*
X21306Y11394D01*
D02*
G37*
G36*
X12275Y12579D02*
X11065D01*
Y11886D01*
X11084Y11840D01*
X11130Y11821D01*
X12275D01*
Y12579D01*
D02*
G37*
G36*
X36225Y12079D02*
X35921D01*
Y11775D01*
X35947Y11779D01*
X36041Y11817D01*
X36121Y11879D01*
X36183Y11959D01*
X36221Y12053D01*
X36225Y12079D01*
D02*
G37*
G36*
X17106Y17110D02*
X15917D01*
Y16077D01*
X15936Y16031D01*
X15982Y16012D01*
X17106D01*
Y17110D01*
D02*
G37*
G36*
X20925Y19280D02*
X20860D01*
Y19130D01*
X20990D01*
Y19215D01*
X20971Y19260D01*
X20925Y19280D01*
D02*
G37*
G36*
X12092Y19264D02*
X11847D01*
Y19087D01*
X12028D01*
X12073Y19106D01*
X12092Y19152D01*
Y19264D01*
D02*
G37*
G36*
X31171Y19631D02*
X30522D01*
X30463Y19620D01*
X30414Y19586D01*
X30380Y19537D01*
X30374Y19503D01*
X29250D01*
X29159Y19491D01*
X29098Y19466D01*
X29012D01*
X28953Y19454D01*
X28904Y19421D01*
X28892D01*
X28842Y19454D01*
X28783Y19466D01*
X28656D01*
X28594Y19491D01*
X28504Y19503D01*
X28413Y19491D01*
X28329Y19457D01*
X28257Y19401D01*
X28201Y19328D01*
X28166Y19244D01*
X28154Y19154D01*
Y12672D01*
X26965Y11483D01*
X26961Y11484D01*
X26831Y11467D01*
X26711Y11417D01*
X26608Y11337D01*
X26528Y11234D01*
X26488Y11136D01*
X26434D01*
X26393Y11234D01*
X26314Y11337D01*
X26210Y11417D01*
X26090Y11467D01*
X25961Y11484D01*
X25831Y11467D01*
X25711Y11417D01*
X25608Y11337D01*
X25528Y11234D01*
X25488Y11136D01*
X25434D01*
X25393Y11234D01*
X25314Y11337D01*
X25210Y11417D01*
X25090Y11467D01*
X24961Y11484D01*
X24831Y11467D01*
X24711Y11417D01*
X24608Y11337D01*
X24528Y11234D01*
X24488Y11136D01*
X24434D01*
X24393Y11234D01*
X24314Y11337D01*
X24210Y11417D01*
X24090Y11467D01*
X23961Y11484D01*
X23831Y11467D01*
X23711Y11417D01*
X23608Y11337D01*
X23528Y11234D01*
X23488Y11136D01*
X23434D01*
X23393Y11234D01*
X23314Y11337D01*
X23210Y11417D01*
X23090Y11467D01*
X22961Y11484D01*
X22831Y11467D01*
X22711Y11417D01*
X22608Y11337D01*
X22528Y11234D01*
X22488Y11136D01*
X22434D01*
X22393Y11234D01*
X22314Y11337D01*
X22210Y11417D01*
X22090Y11467D01*
X21961Y11484D01*
X21831Y11467D01*
X21711Y11417D01*
X21608Y11337D01*
X21528Y11234D01*
X21478Y11113D01*
X21461Y10984D01*
X21478Y10855D01*
X21528Y10735D01*
X21608Y10631D01*
X21711Y10552D01*
X21831Y10502D01*
X21961Y10485D01*
X22090Y10502D01*
X22210Y10552D01*
X22314Y10631D01*
X22393Y10735D01*
X22434Y10833D01*
X22488D01*
X22528Y10735D01*
X22608Y10631D01*
X22711Y10552D01*
X22831Y10502D01*
X22961Y10485D01*
X23090Y10502D01*
X23210Y10552D01*
X23314Y10631D01*
X23393Y10735D01*
X23434Y10833D01*
X23488D01*
X23528Y10735D01*
X23608Y10631D01*
X23711Y10552D01*
X23831Y10502D01*
X23961Y10485D01*
X24090Y10502D01*
X24210Y10552D01*
X24314Y10631D01*
X24393Y10735D01*
X24434Y10833D01*
X24488D01*
X24528Y10735D01*
X24608Y10631D01*
X24711Y10552D01*
X24831Y10502D01*
X24961Y10485D01*
X25090Y10502D01*
X25210Y10552D01*
X25314Y10631D01*
X25393Y10735D01*
X25434Y10833D01*
X25488D01*
X25528Y10735D01*
X25608Y10631D01*
X25711Y10552D01*
X25831Y10502D01*
X25961Y10485D01*
X26090Y10502D01*
X26210Y10552D01*
X26314Y10631D01*
X26393Y10735D01*
X26434Y10833D01*
X26488D01*
X26528Y10735D01*
X26608Y10631D01*
X26711Y10552D01*
X26831Y10502D01*
X26961Y10485D01*
X27090Y10502D01*
X27210Y10552D01*
X27314Y10631D01*
X27393Y10735D01*
X27443Y10855D01*
X27460Y10984D01*
X27459Y10988D01*
X28751Y12280D01*
X28807Y12353D01*
X28842Y12437D01*
X28854Y12528D01*
Y18861D01*
X28892Y18886D01*
X28904D01*
X28953Y18853D01*
X29012Y18841D01*
X29098D01*
X29159Y18816D01*
X29250Y18804D01*
X30374D01*
X30380Y18770D01*
X30414Y18721D01*
X30463Y18687D01*
X30522Y18676D01*
X30793D01*
X30796Y18626D01*
X30723Y18616D01*
X30607Y18568D01*
X30508Y18492D01*
X30432Y18393D01*
X30384Y18277D01*
X30368Y18154D01*
X30384Y18030D01*
X30432Y17914D01*
X30508Y17815D01*
X30607Y17739D01*
X30723Y17691D01*
X30815Y17679D01*
Y17628D01*
X30723Y17616D01*
X30607Y17568D01*
X30508Y17492D01*
X30432Y17393D01*
X30384Y17277D01*
X30368Y17154D01*
X30384Y17030D01*
X30432Y16914D01*
X30508Y16815D01*
X30607Y16739D01*
X30723Y16691D01*
X30815Y16679D01*
Y16628D01*
X30723Y16616D01*
X30607Y16568D01*
X30508Y16492D01*
X30432Y16393D01*
X30384Y16277D01*
X30368Y16154D01*
X30384Y16030D01*
X30432Y15914D01*
X30508Y15815D01*
X30607Y15739D01*
X30723Y15691D01*
X30815Y15679D01*
Y15628D01*
X30723Y15616D01*
X30607Y15568D01*
X30508Y15492D01*
X30432Y15393D01*
X30384Y15277D01*
X30368Y15154D01*
X30384Y15030D01*
X30432Y14914D01*
X30508Y14815D01*
X30607Y14739D01*
X30723Y14691D01*
X30815Y14679D01*
Y14628D01*
X30723Y14616D01*
X30607Y14568D01*
X30508Y14492D01*
X30432Y14393D01*
X30384Y14277D01*
X30368Y14154D01*
X30384Y14030D01*
X30432Y13914D01*
X30508Y13815D01*
X30607Y13739D01*
X30723Y13691D01*
X30815Y13679D01*
Y13628D01*
X30723Y13616D01*
X30607Y13568D01*
X30508Y13492D01*
X30432Y13393D01*
X30384Y13277D01*
X30368Y13154D01*
X30384Y13030D01*
X30432Y12914D01*
X30508Y12815D01*
X30607Y12739D01*
X30723Y12691D01*
X30815Y12679D01*
Y12628D01*
X30723Y12616D01*
X30607Y12568D01*
X30508Y12492D01*
X30432Y12393D01*
X30384Y12277D01*
X30368Y12154D01*
X30384Y12030D01*
X30432Y11914D01*
X30508Y11815D01*
X30607Y11739D01*
X30723Y11691D01*
X30846Y11675D01*
X30970Y11691D01*
X31086Y11739D01*
X31185Y11815D01*
X31261Y11914D01*
X31309Y12030D01*
X31325Y12154D01*
X31309Y12277D01*
X31261Y12393D01*
X31185Y12492D01*
X31086Y12568D01*
X30970Y12616D01*
X30878Y12628D01*
Y12679D01*
X30970Y12691D01*
X31086Y12739D01*
X31185Y12815D01*
X31261Y12914D01*
X31309Y13030D01*
X31325Y13154D01*
X31309Y13277D01*
X31261Y13393D01*
X31185Y13492D01*
X31086Y13568D01*
X30970Y13616D01*
X30878Y13628D01*
Y13679D01*
X30970Y13691D01*
X31086Y13739D01*
X31185Y13815D01*
X31261Y13914D01*
X31309Y14030D01*
X31325Y14154D01*
X31309Y14277D01*
X31261Y14393D01*
X31185Y14492D01*
X31086Y14568D01*
X30970Y14616D01*
X30878Y14628D01*
Y14679D01*
X30970Y14691D01*
X31086Y14739D01*
X31173Y14806D01*
X31216Y14802D01*
X31232Y14794D01*
X31252Y14746D01*
X31308Y14674D01*
X31701Y14280D01*
X31774Y14225D01*
X31858Y14190D01*
X31949Y14178D01*
X33012D01*
Y14037D01*
X33003Y14029D01*
X32922Y13924D01*
X32871Y13801D01*
X32854Y13669D01*
X32871Y13538D01*
X32922Y13415D01*
X33003Y13310D01*
X33108Y13229D01*
X33231Y13178D01*
X33362Y13161D01*
X33494Y13178D01*
X33617Y13229D01*
X33722Y13310D01*
X33803Y13415D01*
X33835Y13493D01*
X33889D01*
X33922Y13415D01*
X34003Y13310D01*
X34108Y13229D01*
X34231Y13178D01*
X34362Y13161D01*
X34494Y13178D01*
X34617Y13229D01*
X34722Y13310D01*
X34803Y13415D01*
X34854Y13538D01*
X34871Y13669D01*
X34854Y13801D01*
X34803Y13924D01*
X34722Y14029D01*
X34617Y14110D01*
X34494Y14161D01*
X34362Y14178D01*
X34231Y14161D01*
X34108Y14110D01*
X34003Y14029D01*
X33922Y13924D01*
X33889Y13845D01*
X33835D01*
X33803Y13924D01*
X33722Y14029D01*
X33712Y14037D01*
Y14331D01*
X33706Y14376D01*
X33700Y14421D01*
X33686Y14456D01*
X33665Y14506D01*
X33610Y14578D01*
X33413Y14775D01*
X33340Y14831D01*
X33256Y14865D01*
X33165Y14877D01*
X32094D01*
X31980Y14991D01*
X31983Y15001D01*
X32004Y15037D01*
X32271D01*
Y15457D01*
Y15876D01*
X31992D01*
X31946Y15857D01*
X31927Y15811D01*
Y15749D01*
X31877Y15739D01*
X31858Y15785D01*
X31802Y15858D01*
X31647Y16014D01*
X31651Y16028D01*
X31673Y16058D01*
X31752Y16048D01*
X32788D01*
X32971Y15865D01*
X32987Y15816D01*
X32906Y15711D01*
X32855Y15588D01*
X32838Y15457D01*
X32855Y15325D01*
X32906Y15202D01*
X32987Y15097D01*
X33092Y15016D01*
X33215Y14965D01*
X33346Y14948D01*
X33478Y14965D01*
X33601Y15016D01*
X33706Y15097D01*
X33787Y15202D01*
X33819Y15281D01*
X33874D01*
X33906Y15202D01*
X33987Y15097D01*
X34092Y15016D01*
X34215Y14965D01*
X34346Y14948D01*
X34478Y14965D01*
X34601Y15016D01*
X34706Y15097D01*
X34787Y15202D01*
X34838Y15325D01*
X34855Y15457D01*
X34838Y15588D01*
X34787Y15711D01*
X34706Y15816D01*
X34601Y15897D01*
X34478Y15948D01*
X34346Y15965D01*
X34215Y15948D01*
X34092Y15897D01*
X33987Y15816D01*
X33906Y15711D01*
X33874Y15633D01*
X33819D01*
X33787Y15711D01*
X33706Y15816D01*
X33696Y15824D01*
Y15984D01*
X33684Y16075D01*
X33649Y16159D01*
X33594Y16232D01*
X33180Y16645D01*
X33108Y16701D01*
X33024Y16736D01*
X32933Y16747D01*
X31897D01*
X31268Y17376D01*
X31261Y17393D01*
X31185Y17492D01*
X31086Y17568D01*
X30970Y17616D01*
X30878Y17628D01*
Y17679D01*
X30970Y17691D01*
X31086Y17739D01*
X31170Y17804D01*
X32902D01*
X33012Y17694D01*
Y17611D01*
X33003Y17604D01*
X32922Y17498D01*
X32871Y17376D01*
X32854Y17244D01*
X32871Y17112D01*
X32922Y16990D01*
X33003Y16884D01*
X33108Y16804D01*
X33231Y16753D01*
X33362Y16735D01*
X33494Y16753D01*
X33617Y16804D01*
X33722Y16884D01*
X33803Y16990D01*
X33835Y17068D01*
X33889D01*
X33922Y16990D01*
X34003Y16884D01*
X34108Y16804D01*
X34231Y16753D01*
X34362Y16735D01*
X34494Y16753D01*
X34617Y16804D01*
X34722Y16884D01*
X34803Y16990D01*
X34854Y17112D01*
X34871Y17244D01*
X34854Y17376D01*
X34803Y17498D01*
X34722Y17604D01*
X34617Y17685D01*
X34494Y17735D01*
X34362Y17753D01*
X34231Y17735D01*
X34108Y17685D01*
X34003Y17604D01*
X33922Y17498D01*
X33889Y17420D01*
X33835D01*
X33803Y17498D01*
X33722Y17604D01*
X33712Y17611D01*
Y17839D01*
X33700Y17929D01*
X33665Y18013D01*
X33610Y18086D01*
X33295Y18401D01*
X33222Y18457D01*
X33138Y18491D01*
X33047Y18503D01*
X31170D01*
X31086Y18568D01*
X30970Y18616D01*
X30897Y18626D01*
X30900Y18676D01*
X31171D01*
X31230Y18687D01*
X31279Y18721D01*
X31313Y18770D01*
X31324Y18829D01*
Y19478D01*
X31313Y19537D01*
X31279Y19586D01*
X31230Y19620D01*
X31171Y19631D01*
D02*
G37*
G36*
X11145Y19352D02*
X10995D01*
Y19287D01*
X11014Y19241D01*
X11060Y19222D01*
X11145D01*
Y19352D01*
D02*
G37*
G36*
X35921Y18532D02*
Y18229D01*
X36225D01*
X36221Y18254D01*
X36183Y18348D01*
X36121Y18428D01*
X36041Y18490D01*
X35947Y18528D01*
X35921Y18532D01*
D02*
G37*
G36*
X35771D02*
X35746Y18528D01*
X35652Y18490D01*
X35572Y18428D01*
X35510Y18348D01*
X35472Y18254D01*
X35468Y18229D01*
X35771D01*
Y18532D01*
D02*
G37*
G36*
X20990Y18980D02*
X20860D01*
Y18831D01*
X20925D01*
X20971Y18850D01*
X20990Y18896D01*
Y18980D01*
D02*
G37*
G36*
X35846Y19632D02*
X35723Y19616D01*
X35607Y19568D01*
X35508Y19492D01*
X35432Y19393D01*
X35384Y19277D01*
X35368Y19154D01*
X35384Y19030D01*
X35432Y18914D01*
X35508Y18815D01*
X35607Y18739D01*
X35723Y18691D01*
X35846Y18675D01*
X35970Y18691D01*
X36086Y18739D01*
X36185Y18815D01*
X36261Y18914D01*
X36309Y19030D01*
X36325Y19154D01*
X36309Y19277D01*
X36261Y19393D01*
X36185Y19492D01*
X36086Y19568D01*
X35970Y19616D01*
X35846Y19632D01*
D02*
G37*
G36*
X17886Y20394D02*
X17616D01*
X17570Y20375D01*
X17551Y20329D01*
Y20059D01*
X17886D01*
Y20394D01*
D02*
G37*
G36*
X13886D02*
X13616D01*
X13570Y20375D01*
X13551Y20329D01*
Y20059D01*
X13886D01*
Y20394D01*
D02*
G37*
G36*
X18306D02*
X18036D01*
Y20059D01*
X18371D01*
Y20329D01*
X18352Y20375D01*
X18306Y20394D01*
D02*
G37*
G36*
X14306D02*
X14036D01*
Y20059D01*
X14371D01*
Y20329D01*
X14352Y20375D01*
X14306Y20394D01*
D02*
G37*
G36*
X14371Y19909D02*
X14036D01*
Y19574D01*
X14306D01*
X14352Y19593D01*
X14371Y19639D01*
Y19909D01*
D02*
G37*
G36*
X13346Y20586D02*
X10984D01*
X10926Y20574D01*
X10876Y20541D01*
X10843Y20492D01*
X10831Y20433D01*
Y19941D01*
X10843Y19882D01*
X10876Y19833D01*
X10907Y19812D01*
Y19795D01*
X10919Y19736D01*
X10952Y19687D01*
X10995Y19658D01*
X11004Y19636D01*
X11010Y19601D01*
X10995Y19567D01*
Y19502D01*
X11220D01*
Y19427D01*
X11295D01*
Y19222D01*
X11379D01*
X11401Y19231D01*
X11451Y19202D01*
Y19152D01*
X11470Y19106D01*
X11516Y19087D01*
X11697D01*
Y19339D01*
X11772D01*
Y19414D01*
X12092D01*
Y19526D01*
X12076Y19565D01*
X12082Y19595D01*
X12090Y19619D01*
X12140Y19652D01*
X12140Y19652D01*
X13140Y18652D01*
X13190Y18619D01*
X13208Y18615D01*
X13203Y18565D01*
X12425D01*
Y17807D01*
X13636D01*
Y18500D01*
X13617Y18546D01*
X13590Y18557D01*
X13600Y18607D01*
X13900D01*
Y17701D01*
X13860Y17604D01*
X13847Y17500D01*
X13860Y17396D01*
X13901Y17298D01*
X13965Y17215D01*
X14048Y17151D01*
X14146Y17110D01*
X14250Y17097D01*
X14354Y17110D01*
X14452Y17151D01*
X14535Y17215D01*
X14599Y17298D01*
X14640Y17396D01*
X14653Y17500D01*
X14640Y17604D01*
X14600Y17701D01*
Y18607D01*
X19017Y18607D01*
Y17776D01*
X19029Y17717D01*
X19062Y17667D01*
X19112Y17634D01*
X19170Y17623D01*
X20420Y17623D01*
X20479Y17634D01*
X20528Y17667D01*
X20562Y17717D01*
X20573Y17776D01*
X20573Y18760D01*
Y18811D01*
X20623Y18840D01*
X20646Y18831D01*
X20710D01*
Y19055D01*
Y19280D01*
X20646D01*
X20623Y19270D01*
X20573Y19299D01*
Y19350D01*
X20562Y19409D01*
X20528Y19459D01*
X20479Y19492D01*
X20420Y19503D01*
X20231D01*
X20212Y19550D01*
X20212Y19553D01*
X20314Y19631D01*
X20393Y19735D01*
X20434Y19833D01*
X20488D01*
X20528Y19735D01*
X20608Y19631D01*
X20711Y19552D01*
X20831Y19502D01*
X20961Y19485D01*
X21090Y19502D01*
X21210Y19552D01*
X21314Y19631D01*
X21393Y19735D01*
X21434Y19833D01*
X21488D01*
X21528Y19735D01*
X21608Y19631D01*
X21711Y19552D01*
X21831Y19502D01*
X21961Y19485D01*
X22090Y19502D01*
X22210Y19552D01*
X22314Y19631D01*
X22393Y19735D01*
X22434Y19833D01*
X22488D01*
X22528Y19735D01*
X22608Y19631D01*
X22711Y19552D01*
X22831Y19502D01*
X22961Y19485D01*
X23090Y19502D01*
X23210Y19552D01*
X23314Y19631D01*
X23393Y19735D01*
X23434Y19833D01*
X23488D01*
X23528Y19735D01*
X23608Y19631D01*
X23711Y19552D01*
X23831Y19502D01*
X23961Y19485D01*
X24090Y19502D01*
X24210Y19552D01*
X24314Y19631D01*
X24393Y19735D01*
X24434Y19833D01*
X24488D01*
X24528Y19735D01*
X24608Y19631D01*
X24711Y19552D01*
X24831Y19502D01*
X24961Y19485D01*
X25090Y19502D01*
X25210Y19552D01*
X25314Y19631D01*
X25393Y19735D01*
X25434Y19833D01*
X25488D01*
X25528Y19735D01*
X25608Y19631D01*
X25711Y19552D01*
X25831Y19502D01*
X25961Y19485D01*
X26090Y19502D01*
X26210Y19552D01*
X26314Y19631D01*
X26393Y19735D01*
X26434Y19833D01*
X26488D01*
X26528Y19735D01*
X26608Y19631D01*
X26711Y19552D01*
X26831Y19502D01*
X26961Y19485D01*
X27090Y19502D01*
X27210Y19552D01*
X27314Y19631D01*
X27393Y19735D01*
X27443Y19855D01*
X27460Y19984D01*
X27443Y20113D01*
X27393Y20234D01*
X27314Y20337D01*
X27210Y20417D01*
X27090Y20467D01*
X26961Y20484D01*
X26831Y20467D01*
X26711Y20417D01*
X26608Y20337D01*
X26528Y20234D01*
X26488Y20136D01*
X26434D01*
X26393Y20234D01*
X26314Y20337D01*
X26210Y20417D01*
X26090Y20467D01*
X25961Y20484D01*
X25831Y20467D01*
X25711Y20417D01*
X25608Y20337D01*
X25528Y20234D01*
X25488Y20136D01*
X25434D01*
X25393Y20234D01*
X25314Y20337D01*
X25210Y20417D01*
X25090Y20467D01*
X24961Y20484D01*
X24831Y20467D01*
X24711Y20417D01*
X24608Y20337D01*
X24528Y20234D01*
X24488Y20136D01*
X24434D01*
X24393Y20234D01*
X24314Y20337D01*
X24210Y20417D01*
X24090Y20467D01*
X23961Y20484D01*
X23831Y20467D01*
X23711Y20417D01*
X23608Y20337D01*
X23528Y20234D01*
X23488Y20136D01*
X23434D01*
X23393Y20234D01*
X23314Y20337D01*
X23210Y20417D01*
X23090Y20467D01*
X22961Y20484D01*
X22831Y20467D01*
X22711Y20417D01*
X22608Y20337D01*
X22528Y20234D01*
X22488Y20136D01*
X22434D01*
X22393Y20234D01*
X22314Y20337D01*
X22210Y20417D01*
X22090Y20467D01*
X21961Y20484D01*
X21831Y20467D01*
X21711Y20417D01*
X21608Y20337D01*
X21528Y20234D01*
X21488Y20136D01*
X21434D01*
X21393Y20234D01*
X21314Y20337D01*
X21210Y20417D01*
X21090Y20467D01*
X20961Y20484D01*
X20831Y20467D01*
X20711Y20417D01*
X20608Y20337D01*
X20528Y20234D01*
X20488Y20136D01*
X20434D01*
X20393Y20234D01*
X20314Y20337D01*
X20210Y20417D01*
X20090Y20467D01*
X19961Y20484D01*
X19831Y20467D01*
X19711Y20417D01*
X19608Y20337D01*
X19528Y20234D01*
X19488Y20136D01*
X19434D01*
X19393Y20234D01*
X19314Y20337D01*
X19210Y20417D01*
X19090Y20467D01*
X18961Y20484D01*
X18831Y20467D01*
X18711Y20417D01*
X18608Y20337D01*
X18528Y20234D01*
X18478Y20113D01*
X18461Y19984D01*
X18478Y19855D01*
X18528Y19735D01*
X18608Y19631D01*
X18709Y19553D01*
X18709Y19550D01*
X18691Y19503D01*
X17231Y19503D01*
X17212Y19550D01*
X17212Y19553D01*
X17314Y19631D01*
X17393Y19735D01*
X17443Y19855D01*
X17460Y19984D01*
X17443Y20113D01*
X17393Y20234D01*
X17314Y20337D01*
X17210Y20417D01*
X17090Y20467D01*
X16961Y20484D01*
X16831Y20467D01*
X16711Y20417D01*
X16608Y20337D01*
X16528Y20234D01*
X16488Y20136D01*
X16434D01*
X16393Y20234D01*
X16314Y20337D01*
X16210Y20417D01*
X16090Y20467D01*
X15961Y20484D01*
X15831Y20467D01*
X15711Y20417D01*
X15608Y20337D01*
X15528Y20234D01*
X15488Y20136D01*
X15434D01*
X15393Y20234D01*
X15314Y20337D01*
X15210Y20417D01*
X15090Y20467D01*
X14961Y20484D01*
X14831Y20467D01*
X14711Y20417D01*
X14608Y20337D01*
X14528Y20234D01*
X14478Y20113D01*
X14461Y19984D01*
X14478Y19855D01*
X14528Y19735D01*
X14608Y19631D01*
X14709Y19553D01*
X14709Y19550D01*
X14691Y19503D01*
X14429D01*
X13706Y19503D01*
X13691Y19524D01*
X13716Y19574D01*
X13886D01*
Y19909D01*
X13551D01*
Y19765D01*
X13501Y19738D01*
X13499Y19739D01*
Y20433D01*
X13488Y20492D01*
X13455Y20541D01*
X13405Y20574D01*
X13346Y20586D01*
D02*
G37*
G36*
X18371Y19909D02*
X18036D01*
Y19574D01*
X18306D01*
X18352Y19593D01*
X18371Y19639D01*
Y19909D01*
D02*
G37*
G36*
X17886D02*
X17551D01*
Y19639D01*
X17570Y19593D01*
X17616Y19574D01*
X17886D01*
Y19909D01*
D02*
G37*
G36*
X12275Y18565D02*
X11130D01*
X11084Y18546D01*
X11065Y18500D01*
Y17807D01*
X12275D01*
Y18565D01*
D02*
G37*
G36*
X13636Y17657D02*
X12425D01*
Y16900D01*
X13571D01*
X13617Y16919D01*
X13636Y16965D01*
Y17657D01*
D02*
G37*
G36*
X20073Y17242D02*
X20013Y17182D01*
X19994Y17137D01*
X20013Y17091D01*
X20059Y17045D01*
X20165Y17150D01*
X20073Y17242D01*
D02*
G37*
G36*
X26732Y18584D02*
X22073Y18584D01*
X22014Y18572D01*
X21965Y18539D01*
X20594Y17168D01*
X20539Y17184D01*
X20528Y17210D01*
X20482Y17256D01*
X20324Y17097D01*
X20165Y16939D01*
X20211Y16893D01*
X20237Y16882D01*
X20253Y16828D01*
X20053Y16627D01*
X19242D01*
X19184Y16616D01*
X19134Y16583D01*
X19101Y16533D01*
X19089Y16474D01*
Y16093D01*
X19101Y16034D01*
X19134Y15984D01*
X19184Y15951D01*
X19242Y15940D01*
X19300D01*
X19319Y15893D01*
X19248Y15822D01*
X15512Y15822D01*
X15453Y15811D01*
X15404Y15777D01*
X15378Y15740D01*
X15008D01*
X14949Y15728D01*
X14900Y15695D01*
X14867Y15645D01*
X14855Y15587D01*
Y14287D01*
X14867Y14229D01*
X14900Y14179D01*
X14949Y14146D01*
X15008Y14134D01*
X15363D01*
X15371Y14095D01*
X15404Y14045D01*
X15453Y14012D01*
X15512Y14001D01*
X15977D01*
X15992Y13951D01*
X15957Y13927D01*
X15924Y13877D01*
X15912Y13819D01*
Y13452D01*
X15849Y13389D01*
X14600D01*
X14509Y13377D01*
X14448Y13352D01*
X14364D01*
X14346Y13367D01*
Y13601D01*
X14355Y13611D01*
X14452Y13651D01*
X14535Y13715D01*
X14599Y13798D01*
X14640Y13896D01*
X14653Y14000D01*
X14640Y14104D01*
X14599Y14202D01*
X14535Y14285D01*
X14452Y14349D01*
X14354Y14390D01*
X14250Y14403D01*
X14146Y14390D01*
X14048Y14349D01*
X13965Y14285D01*
X13901Y14202D01*
X13861Y14105D01*
X13749Y13993D01*
X13693Y13921D01*
X13658Y13837D01*
X13646Y13746D01*
Y13503D01*
X13596Y13476D01*
X13571Y13486D01*
X12425D01*
Y12729D01*
X13636D01*
Y12872D01*
X13686Y12882D01*
X13693Y12864D01*
X13711Y12841D01*
X13715Y12821D01*
X13748Y12772D01*
X13798Y12739D01*
X13832Y12732D01*
X13906Y12701D01*
X13996Y12690D01*
X14087Y12701D01*
X14160Y12732D01*
X14194Y12739D01*
X14211Y12750D01*
X14250Y12769D01*
X14289Y12750D01*
X14306Y12739D01*
X14364Y12727D01*
X14448D01*
X14509Y12701D01*
X14600Y12690D01*
X14808D01*
X14840Y12651D01*
X14838Y12640D01*
Y12600D01*
X14501D01*
X14404Y12640D01*
X14300Y12653D01*
X14196Y12640D01*
X14098Y12599D01*
X14015Y12535D01*
X13951Y12452D01*
X13910Y12354D01*
X13897Y12250D01*
X13910Y12146D01*
X13951Y12048D01*
X14015Y11965D01*
X14098Y11901D01*
X14196Y11860D01*
X14300Y11847D01*
X14404Y11860D01*
X14501Y11900D01*
X15050D01*
X15090Y11905D01*
X15095Y11900D01*
X15104Y11849D01*
X14713Y11458D01*
X14658Y11386D01*
X14652Y11371D01*
X14608Y11337D01*
X14528Y11234D01*
X14478Y11113D01*
X14461Y10984D01*
X14478Y10855D01*
X14528Y10735D01*
X14608Y10631D01*
X14711Y10552D01*
X14831Y10502D01*
X14961Y10485D01*
X15090Y10502D01*
X15210Y10552D01*
X15314Y10631D01*
X15393Y10735D01*
X15434Y10833D01*
X15488D01*
X15528Y10735D01*
X15608Y10631D01*
X15711Y10552D01*
X15831Y10502D01*
X15961Y10485D01*
X16090Y10502D01*
X16210Y10552D01*
X16314Y10631D01*
X16393Y10735D01*
X16434Y10833D01*
X16488D01*
X16528Y10735D01*
X16608Y10631D01*
X16711Y10552D01*
X16831Y10502D01*
X16961Y10485D01*
X17090Y10502D01*
X17210Y10552D01*
X17314Y10631D01*
X17393Y10735D01*
X17434Y10833D01*
X17488D01*
X17528Y10735D01*
X17608Y10631D01*
X17711Y10552D01*
X17831Y10502D01*
X17961Y10485D01*
X18090Y10502D01*
X18210Y10552D01*
X18314Y10631D01*
X18393Y10735D01*
X18434Y10833D01*
X18488D01*
X18528Y10735D01*
X18608Y10631D01*
X18711Y10552D01*
X18831Y10502D01*
X18961Y10485D01*
X19090Y10502D01*
X19210Y10552D01*
X19314Y10631D01*
X19393Y10735D01*
X19434Y10833D01*
X19488D01*
X19528Y10735D01*
X19608Y10631D01*
X19711Y10552D01*
X19831Y10502D01*
X19961Y10485D01*
X20090Y10502D01*
X20210Y10552D01*
X20314Y10631D01*
X20393Y10735D01*
X20443Y10855D01*
X20460Y10984D01*
X20443Y11113D01*
X20393Y11234D01*
X20314Y11337D01*
X20210Y11417D01*
X20090Y11467D01*
X19961Y11484D01*
X19831Y11467D01*
X19711Y11417D01*
X19608Y11337D01*
X19528Y11234D01*
X19488Y11136D01*
X19434D01*
X19393Y11234D01*
X19314Y11337D01*
X19210Y11417D01*
X19090Y11467D01*
X18961Y11484D01*
X18831Y11467D01*
X18711Y11417D01*
X18608Y11337D01*
X18528Y11234D01*
X18488Y11136D01*
X18434D01*
X18393Y11234D01*
X18314Y11337D01*
X18210Y11417D01*
X18090Y11467D01*
X17961Y11484D01*
X17831Y11467D01*
X17711Y11417D01*
X17608Y11337D01*
X17528Y11234D01*
X17488Y11136D01*
X17434D01*
X17393Y11234D01*
X17314Y11337D01*
X17221Y11408D01*
X17217Y11417D01*
X17212Y11446D01*
X17214Y11469D01*
X17597Y11853D01*
X17653Y11925D01*
X17660Y11942D01*
X17694Y11949D01*
X17744Y11982D01*
X17756D01*
X17806Y11949D01*
X17864Y11938D01*
X18144D01*
X18202Y11949D01*
X18252Y11982D01*
X18285Y12032D01*
X18297Y12091D01*
Y12164D01*
X18347Y12203D01*
X18403Y12275D01*
X18438Y12359D01*
X18450Y12450D01*
Y12605D01*
X18601Y12756D01*
X18613Y12755D01*
X18650Y12735D01*
Y12500D01*
X18662Y12409D01*
X18697Y12325D01*
X18703Y12317D01*
Y12091D01*
X18715Y12032D01*
X18748Y11982D01*
X18798Y11949D01*
X18856Y11938D01*
X19136D01*
X19194Y11949D01*
X19244Y11982D01*
X19256D01*
X19306Y11949D01*
X19364Y11938D01*
X19548D01*
X19609Y11912D01*
X19700Y11900D01*
X19820D01*
X19916Y11860D01*
X20021Y11847D01*
X20125Y11860D01*
X20223Y11901D01*
X20306Y11965D01*
X20370Y12048D01*
X20410Y12146D01*
X20424Y12250D01*
X20415Y12319D01*
X20462Y12343D01*
X20603Y12203D01*
X20675Y12147D01*
X20703Y12135D01*
Y12091D01*
X20715Y12032D01*
X20748Y11982D01*
X20798Y11949D01*
X20856Y11938D01*
X21136D01*
X21194Y11949D01*
X21244Y11982D01*
X21256D01*
X21306Y11949D01*
X21364Y11938D01*
X21498D01*
X21559Y11912D01*
X21650Y11900D01*
X21820D01*
X21916Y11860D01*
X22021Y11847D01*
X22125Y11860D01*
X22223Y11901D01*
X22306Y11965D01*
X22370Y12048D01*
X22411Y12146D01*
X22424Y12250D01*
X22411Y12354D01*
X22370Y12452D01*
X22306Y12535D01*
X22223Y12599D01*
X22125Y12640D01*
X22021Y12653D01*
X21916Y12640D01*
X21820Y12600D01*
X21650D01*
X21559Y12588D01*
X21498Y12562D01*
X21364D01*
X21306Y12551D01*
X21256Y12518D01*
X21244D01*
X21194Y12551D01*
X21183Y12553D01*
X21153Y12625D01*
X21097Y12697D01*
X20769Y13026D01*
Y13097D01*
X20779Y13105D01*
X20860Y13210D01*
X20911Y13333D01*
X20928Y13465D01*
X20911Y13596D01*
X20860Y13719D01*
X20779Y13824D01*
X20674Y13905D01*
X20551Y13956D01*
X20419Y13973D01*
X20288Y13956D01*
X20165Y13905D01*
X20060Y13824D01*
X19979Y13719D01*
X19946Y13641D01*
X19892D01*
X19860Y13719D01*
X19779Y13824D01*
X19674Y13905D01*
X19564Y13951D01*
X19574Y14001D01*
X19665D01*
X19724Y14012D01*
X19773Y14045D01*
X22268Y16540D01*
X23686D01*
Y15925D01*
X23705Y15826D01*
X23761Y15742D01*
X23845Y15686D01*
X23944Y15666D01*
X24567D01*
X24666Y15686D01*
X24750Y15742D01*
X24807Y15826D01*
X24826Y15925D01*
Y16540D01*
X26732D01*
X26791Y16552D01*
X26840Y16585D01*
X26874Y16634D01*
X26885Y16693D01*
Y18431D01*
X26874Y18490D01*
X26840Y18539D01*
X26791Y18572D01*
X26732Y18584D01*
D02*
G37*
G36*
X12275Y17657D02*
X11065D01*
Y16965D01*
X11084Y16919D01*
X11130Y16900D01*
X12275D01*
Y17657D01*
D02*
G37*
G36*
X18445Y17110D02*
X17256D01*
Y16012D01*
X18380D01*
X18426Y16031D01*
X18445Y16077D01*
Y17110D01*
D02*
G37*
G36*
X32287Y17169D02*
X31943D01*
Y16890D01*
X31962Y16844D01*
X32008Y16825D01*
X32287D01*
Y17169D01*
D02*
G37*
G36*
X32781D02*
X32437D01*
Y16825D01*
X32717D01*
X32762Y16844D01*
X32781Y16890D01*
Y17169D01*
D02*
G37*
G36*
X20285Y17427D02*
X20239Y17408D01*
X20179Y17348D01*
X20271Y17257D01*
X20376Y17362D01*
X20331Y17408D01*
X20285Y17427D01*
D02*
G37*
G36*
X32717Y17663D02*
X32437D01*
Y17319D01*
X32781D01*
Y17598D01*
X32762Y17644D01*
X32717Y17663D01*
D02*
G37*
G36*
X35771Y18079D02*
X35468D01*
X35472Y18053D01*
X35510Y17959D01*
X35572Y17879D01*
X35652Y17817D01*
X35746Y17779D01*
X35771Y17775D01*
Y18079D01*
D02*
G37*
G36*
X36225D02*
X35921D01*
Y17775D01*
X35947Y17779D01*
X36041Y17817D01*
X36121Y17879D01*
X36183Y17959D01*
X36221Y18053D01*
X36225Y18079D01*
D02*
G37*
G36*
X17106Y18358D02*
X15982D01*
X15936Y18339D01*
X15917Y18293D01*
Y17260D01*
X17106D01*
Y18358D01*
D02*
G37*
G36*
X18380D02*
X17256D01*
Y17260D01*
X18445D01*
Y18293D01*
X18426Y18339D01*
X18380Y18358D01*
D02*
G37*
G36*
X32287Y17663D02*
X32008D01*
X31962Y17644D01*
X31943Y17598D01*
Y17319D01*
X32287D01*
Y17663D01*
D02*
G37*
%LPD*%
G36*
X13346Y19624D02*
X13620Y19350D01*
X14429Y19350D01*
X20420Y19350D01*
X20420Y18760D01*
X20420Y17776D01*
X19170Y17776D01*
Y18760D01*
X14059Y18760D01*
X13248D01*
X12067Y19941D01*
X10984D01*
Y20433D01*
X13346D01*
Y19624D01*
D02*
G37*
G36*
X26732Y16693D02*
X22205Y16693D01*
X19665Y14154D01*
X15512D01*
X15512Y15669D01*
X19311Y15669D01*
X22073Y18431D01*
X26732Y18431D01*
Y16693D01*
D02*
G37*
D10*
X11220Y19427D02*
D03*
Y19935D02*
D03*
X15150Y12500D02*
D03*
Y13008D02*
D03*
D11*
X11772Y19339D02*
D03*
D12*
Y19953D02*
D03*
D13*
X29152Y19154D02*
D03*
X28644D02*
D03*
X15996Y12250D02*
D03*
X16504D02*
D03*
X17496D02*
D03*
X18004D02*
D03*
X19504D02*
D03*
X18996D02*
D03*
X21504D02*
D03*
X20996D02*
D03*
X13996Y13039D02*
D03*
X14504D02*
D03*
X20785Y19055D02*
D03*
X20278D02*
D03*
D14*
X20271Y17150D02*
D03*
X20630Y16791D02*
D03*
D15*
X24256Y16817D02*
D03*
Y13451D02*
D03*
D16*
X17181Y17185D02*
D03*
D17*
X19799Y18087D02*
D03*
Y16283D02*
D03*
D18*
X12350Y17732D02*
D03*
Y12654D02*
D03*
D19*
X15874Y14937D02*
D03*
D20*
X14600Y13039D02*
X15994D01*
X16950Y11700D02*
X17350Y12100D01*
X16400Y11700D02*
X16950D01*
X15961Y11261D02*
X16400Y11700D01*
X15961Y10984D02*
Y11261D01*
X14961Y11211D02*
X15850Y12100D01*
X14961Y10984D02*
Y11211D01*
X16650Y12350D02*
X17419Y13119D01*
Y13465D01*
X15994Y13039D02*
X16419Y13465D01*
X18100Y12450D02*
Y12750D01*
X18419Y13069D01*
Y13465D01*
X19000Y12500D02*
Y12750D01*
X19419Y13169D01*
Y13465D01*
X20419Y12881D02*
X20850Y12450D01*
X20419Y12881D02*
Y13465D01*
X21650Y12250D02*
X22021D01*
X19700D02*
X20021D01*
X15050D02*
X15100Y12300D01*
X14300Y12250D02*
X15050D01*
X13996Y13039D02*
Y13746D01*
X14250Y14000D01*
Y17500D02*
Y19055D01*
X28504Y12528D02*
Y19154D01*
X26961Y10984D02*
X28504Y12528D01*
X29250Y19154D02*
X30846D01*
X35846Y15154D02*
X36378D01*
X37378Y14154D01*
X37874D01*
X30846Y16154D02*
X30898Y16102D01*
X30846Y16154D02*
X31012D01*
X33165Y14528D02*
X33362Y14331D01*
Y13669D02*
Y14331D01*
X31012Y16154D02*
X31555Y15610D01*
Y14921D02*
Y15610D01*
Y14921D02*
X31949Y14528D01*
X33165D01*
X33346Y15457D02*
Y15984D01*
X32933Y16398D02*
X33346Y15984D01*
X30846Y17154D02*
X30996D01*
X31752Y16398D01*
X32933D01*
X33362Y17244D02*
Y17839D01*
X33047Y18154D02*
X33362Y17839D01*
X30846Y18154D02*
X33047D01*
D21*
X38740Y10000D02*
Y20960D01*
X10000Y10000D02*
X38740D01*
X10000Y20960D02*
X38740D01*
X10000Y10000D02*
Y20960D01*
D22*
X30846Y16154D02*
D03*
X35846D02*
D03*
X30846Y15154D02*
D03*
Y14154D02*
D03*
Y13154D02*
D03*
Y12154D02*
D03*
Y17154D02*
D03*
Y18154D02*
D03*
X35846Y17154D02*
D03*
Y18154D02*
D03*
Y19154D02*
D03*
Y15154D02*
D03*
Y14154D02*
D03*
Y13154D02*
D03*
Y12154D02*
D03*
D23*
X30846Y19154D02*
D03*
D24*
X21419Y13465D02*
D03*
X20419D02*
D03*
X19419D02*
D03*
X17419D02*
D03*
X18419D02*
D03*
X37874Y17154D02*
D03*
Y15154D02*
D03*
Y16154D02*
D03*
X34362Y17244D02*
D03*
X33362D02*
D03*
X34346Y15457D02*
D03*
X33346D02*
D03*
X34362Y13669D02*
D03*
X33362D02*
D03*
D25*
X16419Y13465D02*
D03*
X32362Y17244D02*
D03*
X32346Y15457D02*
D03*
X32362Y13669D02*
D03*
D26*
X12961Y10984D02*
D03*
X14961D02*
D03*
X15961D02*
D03*
X16961D02*
D03*
X17961D02*
D03*
X18961D02*
D03*
X19961D02*
D03*
X21961D02*
D03*
X22961D02*
D03*
X23961D02*
D03*
X24961D02*
D03*
X25961D02*
D03*
X26961D02*
D03*
X12961Y19984D02*
D03*
X14961D02*
D03*
X15961D02*
D03*
X16961D02*
D03*
X18961D02*
D03*
X19961D02*
D03*
X20961D02*
D03*
X21961D02*
D03*
X22961D02*
D03*
X23961D02*
D03*
X24961D02*
D03*
X25961D02*
D03*
X26961D02*
D03*
D27*
X13961Y10984D02*
D03*
X20961D02*
D03*
X13961Y19984D02*
D03*
X17961D02*
D03*
D28*
X37874Y14154D02*
D03*
D29*
X10854Y15193D02*
D03*
D30*
X10984Y10984D02*
D03*
X37756Y19976D02*
D03*
D31*
X37000Y18000D02*
D03*
X34000Y12000D02*
D03*
X30000Y16000D02*
D03*
X26000D02*
D03*
X24000Y12000D02*
D03*
X23000Y14000D02*
D03*
X21000Y18000D02*
D03*
Y14000D02*
D03*
X15000Y18000D02*
D03*
X12000Y16000D02*
D03*
X13000Y14000D02*
D03*
X27950Y20400D02*
D03*
X11200Y18900D02*
D03*
X10650Y12350D02*
D03*
Y18100D02*
D03*
X19550Y17100D02*
D03*
X21450Y19050D02*
D03*
X26400Y19154D02*
D03*
X24850Y19150D02*
D03*
X29450Y18154D02*
D03*
X31700Y19100D02*
D03*
X25300Y13250D02*
D03*
X29850D02*
D03*
X35850Y11250D02*
D03*
X35000Y12154D02*
D03*
X36750D02*
D03*
X35150Y17500D02*
D03*
X28250Y10800D02*
D03*
X25750Y17550D02*
D03*
X14250Y17500D02*
D03*
Y14000D02*
D03*
X14300Y12250D02*
D03*
X22021D02*
D03*
X20021D02*
D03*
X26240Y18071D02*
D03*
X25256D02*
D03*
X26240Y17087D02*
D03*
X25256D02*
D03*
M02*
