G04 Layer_Physical_Order=4*
G04 Layer_Color=16711680*
%FSLAX24Y24*%
%MOIN*%
G70*
G01*
G75*
%ADD20C,0.0394*%
%ADD21C,0.0050*%
%ADD22C,0.0650*%
%ADD23R,0.0650X0.0650*%
%ADD24C,0.0709*%
%ADD25R,0.0709X0.0709*%
%ADD26C,0.0690*%
%ADD27R,0.0690X0.0690*%
%ADD28R,0.0709X0.0709*%
%ADD29C,0.0787*%
%ADD30C,0.1260*%
%ADD31C,0.0500*%
G36*
X36575Y18661D02*
X35394D01*
X34803Y19252D01*
Y19646D01*
X30079Y19646D01*
X27126Y16693D01*
X24862Y16693D01*
Y18465D01*
X26732Y18465D01*
X28968Y20700D01*
X36575D01*
X36575Y18661D01*
D02*
G37*
G36*
X37366Y20655D02*
X37332Y20637D01*
X37321Y20627D01*
X37320Y20627D01*
X37307Y20620D01*
X37211Y20542D01*
X37202Y20530D01*
X37190Y20520D01*
X37111Y20424D01*
X37104Y20411D01*
X37104Y20411D01*
X37095Y20399D01*
X37036Y20290D01*
X37032Y20276D01*
X37025Y20262D01*
X36989Y20144D01*
X36987Y20129D01*
X36983Y20114D01*
X36971Y19991D01*
X36972Y19976D01*
X36971Y19961D01*
X36983Y19837D01*
X36987Y19823D01*
X36989Y19808D01*
X37025Y19689D01*
X37032Y19676D01*
X37036Y19661D01*
X37095Y19552D01*
X37104Y19540D01*
X37104Y19540D01*
X37111Y19527D01*
X37190Y19431D01*
X37202Y19422D01*
X37211Y19410D01*
X37307Y19331D01*
X37320Y19324D01*
X37321Y19324D01*
X37332Y19315D01*
X37442Y19256D01*
X37456Y19252D01*
X37469Y19245D01*
X37588Y19209D01*
X37603Y19207D01*
X37617Y19203D01*
X37741Y19191D01*
X37748Y19191D01*
X37756Y19190D01*
X37763Y19191D01*
X37771Y19191D01*
X37894Y19203D01*
X37909Y19207D01*
X37924Y19209D01*
X38043Y19245D01*
X38056Y19252D01*
X38070Y19256D01*
X38180Y19315D01*
X38191Y19324D01*
X38191Y19324D01*
X38205Y19331D01*
X38300Y19410D01*
X38310Y19422D01*
X38322Y19431D01*
X38400Y19527D01*
X38408Y19540D01*
X38408Y19540D01*
X38417Y19552D01*
X38435Y19586D01*
X38485Y19573D01*
Y10255D01*
X11387D01*
X11374Y10305D01*
X11408Y10323D01*
X11420Y10333D01*
X11420Y10333D01*
X11433Y10340D01*
X11529Y10418D01*
X11538Y10430D01*
X11550Y10440D01*
X11629Y10536D01*
X11636Y10549D01*
X11636Y10549D01*
X11645Y10560D01*
X11704Y10670D01*
X11708Y10684D01*
X11715Y10698D01*
X11751Y10816D01*
X11753Y10831D01*
X11757Y10846D01*
X11769Y10969D01*
X11768Y10984D01*
X11769Y10999D01*
X11757Y11123D01*
X11753Y11137D01*
X11751Y11152D01*
X11715Y11271D01*
X11708Y11284D01*
X11704Y11299D01*
X11645Y11408D01*
X11636Y11420D01*
X11636Y11420D01*
X11629Y11433D01*
X11550Y11529D01*
X11538Y11538D01*
X11529Y11550D01*
X11433Y11629D01*
X11420Y11636D01*
X11420Y11636D01*
X11408Y11645D01*
X11299Y11704D01*
X11284Y11708D01*
X11271Y11715D01*
X11152Y11751D01*
X11137Y11753D01*
X11123Y11757D01*
X10999Y11769D01*
X10992Y11769D01*
X10984Y11770D01*
X10977Y11769D01*
X10969Y11769D01*
X10846Y11757D01*
X10831Y11753D01*
X10816Y11751D01*
X10698Y11715D01*
X10684Y11708D01*
X10670Y11704D01*
X10560Y11645D01*
X10549Y11636D01*
X10549Y11636D01*
X10536Y11629D01*
X10440Y11550D01*
X10430Y11538D01*
X10418Y11529D01*
X10340Y11433D01*
X10333Y11420D01*
X10333Y11420D01*
X10323Y11408D01*
X10305Y11374D01*
X10255Y11387D01*
Y20705D01*
X28691D01*
X28710Y20659D01*
X26669Y18618D01*
X24862Y18618D01*
X24804Y18606D01*
X24754Y18573D01*
X24721Y18523D01*
X24709Y18465D01*
Y16693D01*
X24721Y16634D01*
X24754Y16585D01*
X24804Y16552D01*
X24862Y16540D01*
X27126Y16540D01*
X27185Y16552D01*
X27234Y16585D01*
X30142Y19493D01*
X30325D01*
X30369Y19443D01*
Y18829D01*
X30380Y18770D01*
X30414Y18721D01*
X30463Y18687D01*
X30522Y18676D01*
X30793D01*
X30796Y18626D01*
X30723Y18616D01*
X30607Y18568D01*
X30508Y18492D01*
X30432Y18393D01*
X30384Y18277D01*
X30368Y18154D01*
X30384Y18030D01*
X30432Y17914D01*
X30508Y17815D01*
X30607Y17739D01*
X30723Y17691D01*
X30815Y17679D01*
Y17628D01*
X30723Y17616D01*
X30607Y17568D01*
X30508Y17492D01*
X30432Y17393D01*
X30384Y17277D01*
X30368Y17154D01*
X30384Y17030D01*
X30432Y16914D01*
X30508Y16815D01*
X30607Y16739D01*
X30723Y16691D01*
X30815Y16679D01*
Y16628D01*
X30723Y16616D01*
X30607Y16568D01*
X30508Y16492D01*
X30432Y16393D01*
X30384Y16277D01*
X30368Y16154D01*
X30384Y16030D01*
X30432Y15914D01*
X30508Y15815D01*
X30607Y15739D01*
X30723Y15691D01*
X30815Y15679D01*
Y15628D01*
X30723Y15616D01*
X30607Y15568D01*
X30522Y15503D01*
X25193D01*
X25148Y15497D01*
X25102Y15491D01*
X25067Y15477D01*
X25018Y15457D01*
X24946Y15401D01*
X22713Y13169D01*
X22658Y13096D01*
X22623Y13012D01*
X22617Y12967D01*
X22611Y12921D01*
Y11340D01*
X22608Y11337D01*
X22528Y11234D01*
X22488Y11136D01*
X22434D01*
X22393Y11234D01*
X22314Y11337D01*
X22210Y11417D01*
X22090Y11467D01*
X21961Y11484D01*
X21831Y11467D01*
X21783Y11446D01*
X21754Y11489D01*
X22126Y11861D01*
X22223Y11901D01*
X22306Y11965D01*
X22370Y12048D01*
X22411Y12146D01*
X22424Y12250D01*
X22411Y12354D01*
X22370Y12452D01*
X22306Y12535D01*
X22223Y12599D01*
X22125Y12640D01*
X22021Y12653D01*
X21916Y12640D01*
X21819Y12599D01*
X21736Y12535D01*
X21671Y12452D01*
X21632Y12355D01*
X21326Y12050D01*
X20416D01*
X20388Y12091D01*
X20410Y12146D01*
X20424Y12250D01*
X20410Y12354D01*
X20370Y12452D01*
X20306Y12535D01*
X20223Y12599D01*
X20125Y12640D01*
X20021Y12653D01*
X19916Y12640D01*
X19820Y12600D01*
X18226D01*
X18136Y12588D01*
X18051Y12553D01*
X17979Y12497D01*
X16965Y11483D01*
X16961Y11484D01*
X16831Y11467D01*
X16711Y11417D01*
X16608Y11337D01*
X16528Y11234D01*
X16488Y11136D01*
X16434D01*
X16393Y11234D01*
X16314Y11337D01*
X16210Y11417D01*
X16090Y11467D01*
X15961Y11484D01*
X15831Y11467D01*
X15711Y11417D01*
X15608Y11337D01*
X15528Y11234D01*
X15488Y11136D01*
X15434D01*
X15393Y11234D01*
X15314Y11337D01*
X15210Y11417D01*
X15090Y11467D01*
X14961Y11484D01*
X14831Y11467D01*
X14711Y11417D01*
X14608Y11337D01*
X14528Y11234D01*
X14478Y11113D01*
X14461Y10984D01*
X14478Y10855D01*
X14528Y10735D01*
X14608Y10631D01*
X14711Y10552D01*
X14831Y10502D01*
X14961Y10485D01*
X15090Y10502D01*
X15210Y10552D01*
X15314Y10631D01*
X15393Y10735D01*
X15434Y10833D01*
X15488D01*
X15528Y10735D01*
X15608Y10631D01*
X15711Y10552D01*
X15831Y10502D01*
X15961Y10485D01*
X16090Y10502D01*
X16210Y10552D01*
X16314Y10631D01*
X16393Y10735D01*
X16434Y10833D01*
X16488D01*
X16528Y10735D01*
X16608Y10631D01*
X16711Y10552D01*
X16831Y10502D01*
X16961Y10485D01*
X17090Y10502D01*
X17210Y10552D01*
X17314Y10631D01*
X17393Y10735D01*
X17434Y10833D01*
X17488D01*
X17528Y10735D01*
X17608Y10631D01*
X17711Y10552D01*
X17831Y10502D01*
X17961Y10485D01*
X18090Y10502D01*
X18210Y10552D01*
X18314Y10631D01*
X18393Y10735D01*
X18434Y10833D01*
X18488D01*
X18528Y10735D01*
X18608Y10631D01*
X18711Y10552D01*
X18831Y10502D01*
X18961Y10485D01*
X19090Y10502D01*
X19210Y10552D01*
X19314Y10631D01*
X19393Y10735D01*
X19434Y10833D01*
X19488D01*
X19528Y10735D01*
X19608Y10631D01*
X19711Y10552D01*
X19831Y10502D01*
X19961Y10485D01*
X20090Y10502D01*
X20210Y10552D01*
X20314Y10631D01*
X20393Y10735D01*
X20443Y10855D01*
X20460Y10984D01*
X20443Y11113D01*
X20393Y11234D01*
X20342Y11300D01*
X20367Y11350D01*
X20537D01*
X20551Y11329D01*
Y11059D01*
X20961D01*
X21371D01*
Y11329D01*
X21385Y11350D01*
X21471D01*
X21561Y11362D01*
X21565Y11363D01*
X21596Y11322D01*
X21528Y11234D01*
X21478Y11113D01*
X21461Y10984D01*
X21478Y10855D01*
X21528Y10735D01*
X21608Y10631D01*
X21711Y10552D01*
X21831Y10502D01*
X21961Y10485D01*
X22090Y10502D01*
X22210Y10552D01*
X22314Y10631D01*
X22393Y10735D01*
X22434Y10833D01*
X22488D01*
X22528Y10735D01*
X22608Y10631D01*
X22711Y10552D01*
X22831Y10502D01*
X22961Y10485D01*
X23090Y10502D01*
X23210Y10552D01*
X23314Y10631D01*
X23393Y10735D01*
X23434Y10833D01*
X23488D01*
X23528Y10735D01*
X23608Y10631D01*
X23711Y10552D01*
X23831Y10502D01*
X23961Y10485D01*
X24090Y10502D01*
X24210Y10552D01*
X24314Y10631D01*
X24393Y10735D01*
X24434Y10833D01*
X24488D01*
X24528Y10735D01*
X24608Y10631D01*
X24711Y10552D01*
X24831Y10502D01*
X24961Y10485D01*
X25090Y10502D01*
X25210Y10552D01*
X25314Y10631D01*
X25393Y10735D01*
X25434Y10833D01*
X25488D01*
X25528Y10735D01*
X25608Y10631D01*
X25711Y10552D01*
X25831Y10502D01*
X25961Y10485D01*
X26090Y10502D01*
X26210Y10552D01*
X26314Y10631D01*
X26393Y10735D01*
X26434Y10833D01*
X26488D01*
X26528Y10735D01*
X26608Y10631D01*
X26711Y10552D01*
X26831Y10502D01*
X26961Y10485D01*
X27090Y10502D01*
X27210Y10552D01*
X27314Y10631D01*
X27393Y10735D01*
X27443Y10855D01*
X27460Y10984D01*
X27443Y11113D01*
X27393Y11234D01*
X27314Y11337D01*
X27210Y11417D01*
X27090Y11467D01*
X26961Y11484D01*
X26831Y11467D01*
X26711Y11417D01*
X26608Y11337D01*
X26528Y11234D01*
X26488Y11136D01*
X26434D01*
X26393Y11234D01*
X26314Y11337D01*
X26310Y11340D01*
Y11434D01*
X26680Y11804D01*
X27977D01*
X29044Y10737D01*
X29116Y10681D01*
X29201Y10646D01*
X29291Y10634D01*
X31260D01*
X31350Y10646D01*
X31435Y10681D01*
X31507Y10737D01*
X32295Y11524D01*
X32350Y11597D01*
X32385Y11681D01*
X32391Y11726D01*
X32397Y11772D01*
Y12366D01*
X32391Y12411D01*
X32385Y12457D01*
X32350Y12541D01*
X32295Y12614D01*
X31507Y13401D01*
X31435Y13457D01*
X31350Y13491D01*
X31260Y13503D01*
X31170D01*
X31086Y13568D01*
X30970Y13616D01*
X30878Y13628D01*
Y13679D01*
X30970Y13691D01*
X31086Y13739D01*
X31185Y13815D01*
X31261Y13914D01*
X31309Y14030D01*
X31325Y14154D01*
X31309Y14277D01*
X31261Y14393D01*
X31185Y14492D01*
X31086Y14568D01*
X30970Y14616D01*
X30878Y14628D01*
Y14679D01*
X30970Y14691D01*
X31086Y14739D01*
X31185Y14815D01*
X31261Y14914D01*
X31309Y15030D01*
X31325Y15154D01*
X31309Y15277D01*
X31261Y15393D01*
X31185Y15492D01*
X31086Y15568D01*
X30970Y15616D01*
X30878Y15628D01*
Y15679D01*
X30970Y15691D01*
X31086Y15739D01*
X31185Y15815D01*
X31261Y15914D01*
X31309Y16030D01*
X31325Y16154D01*
X31309Y16277D01*
X31261Y16393D01*
X31185Y16492D01*
X31086Y16568D01*
X30970Y16616D01*
X30878Y16628D01*
Y16679D01*
X30970Y16691D01*
X31086Y16739D01*
X31185Y16815D01*
X31261Y16914D01*
X31309Y17030D01*
X31325Y17154D01*
X31309Y17277D01*
X31261Y17393D01*
X31185Y17492D01*
X31086Y17568D01*
X30970Y17616D01*
X30878Y17628D01*
Y17679D01*
X30970Y17691D01*
X31086Y17739D01*
X31185Y17815D01*
X31261Y17914D01*
X31309Y18030D01*
X31325Y18154D01*
X31309Y18277D01*
X31261Y18393D01*
X31185Y18492D01*
X31086Y18568D01*
X30970Y18616D01*
X30897Y18626D01*
X30900Y18676D01*
X31171D01*
X31230Y18687D01*
X31279Y18721D01*
X31313Y18770D01*
X31324Y18829D01*
Y19478D01*
X31336Y19493D01*
X34650Y19493D01*
Y19252D01*
X34662Y19193D01*
X34695Y19144D01*
X35018Y18820D01*
X34115Y17917D01*
X34059Y17844D01*
X34024Y17760D01*
X34018Y17715D01*
X34012Y17669D01*
Y17611D01*
X34003Y17604D01*
X33922Y17498D01*
X33889Y17420D01*
X33835D01*
X33803Y17498D01*
X33722Y17604D01*
X33617Y17685D01*
X33494Y17735D01*
X33362Y17753D01*
X33231Y17735D01*
X33108Y17685D01*
X33003Y17604D01*
X32922Y17498D01*
X32871Y17376D01*
X32854Y17244D01*
X32871Y17112D01*
X32922Y16990D01*
X33003Y16884D01*
X33108Y16804D01*
X33231Y16753D01*
X33362Y16735D01*
X33494Y16753D01*
X33617Y16804D01*
X33722Y16884D01*
X33803Y16990D01*
X33835Y17068D01*
X33889D01*
X33922Y16990D01*
X34003Y16884D01*
X34012Y16877D01*
Y15836D01*
X33987Y15816D01*
X33906Y15711D01*
X33874Y15633D01*
X33819D01*
X33787Y15711D01*
X33706Y15816D01*
X33601Y15897D01*
X33478Y15948D01*
X33346Y15965D01*
X33215Y15948D01*
X33092Y15897D01*
X32987Y15816D01*
X32906Y15711D01*
X32855Y15588D01*
X32838Y15457D01*
X32855Y15325D01*
X32906Y15202D01*
X32987Y15097D01*
X33092Y15016D01*
X33215Y14965D01*
X33346Y14948D01*
X33478Y14965D01*
X33601Y15016D01*
X33706Y15097D01*
X33787Y15202D01*
X33819Y15281D01*
X33874D01*
X33906Y15202D01*
X33987Y15097D01*
X34012Y15077D01*
Y14037D01*
X34003Y14029D01*
X33922Y13924D01*
X33889Y13845D01*
X33835D01*
X33803Y13924D01*
X33722Y14029D01*
X33617Y14110D01*
X33494Y14161D01*
X33362Y14178D01*
X33231Y14161D01*
X33108Y14110D01*
X33003Y14029D01*
X32922Y13924D01*
X32871Y13801D01*
X32854Y13669D01*
X32871Y13538D01*
X32922Y13415D01*
X33003Y13310D01*
X33108Y13229D01*
X33231Y13178D01*
X33362Y13161D01*
X33494Y13178D01*
X33617Y13229D01*
X33722Y13310D01*
X33803Y13415D01*
X33835Y13493D01*
X33889D01*
X33922Y13415D01*
X34003Y13310D01*
X34108Y13229D01*
X34231Y13178D01*
X34362Y13161D01*
X34494Y13178D01*
X34617Y13229D01*
X34722Y13310D01*
X34803Y13415D01*
X34854Y13538D01*
X34871Y13669D01*
X34854Y13801D01*
X34803Y13924D01*
X34722Y14029D01*
X34712Y14037D01*
Y15105D01*
X34787Y15202D01*
X34838Y15325D01*
X34855Y15457D01*
X34838Y15588D01*
X34787Y15711D01*
X34712Y15809D01*
Y16877D01*
X34722Y16884D01*
X34803Y16990D01*
X34854Y17112D01*
X34871Y17244D01*
X34854Y17376D01*
X34803Y17498D01*
X34752Y17564D01*
X35418Y18230D01*
X35422Y18229D01*
X36225D01*
X36221Y18254D01*
X36183Y18348D01*
X36121Y18428D01*
X36081Y18458D01*
X36098Y18508D01*
X36575D01*
X36633Y18520D01*
X36683Y18553D01*
X36716Y18603D01*
X36728Y18661D01*
X36728Y20655D01*
X36776Y20705D01*
X37354D01*
X37366Y20655D01*
D02*
G37*
G36*
X30607Y13739D02*
X30723Y13691D01*
X30815Y13679D01*
Y13628D01*
X30723Y13616D01*
X30607Y13568D01*
X30508Y13492D01*
X30432Y13393D01*
X30384Y13277D01*
X30368Y13154D01*
X30384Y13030D01*
X30432Y12914D01*
X30508Y12815D01*
X30607Y12739D01*
X30723Y12691D01*
X30815Y12679D01*
Y12628D01*
X30723Y12616D01*
X30607Y12568D01*
X30522Y12503D01*
X29842D01*
X29243Y13102D01*
X29171Y13157D01*
X29087Y13192D01*
X29041Y13198D01*
X28996Y13204D01*
X26236D01*
X26146Y13192D01*
X26061Y13157D01*
X25989Y13102D01*
X24713Y11826D01*
X24658Y11754D01*
X24623Y11669D01*
X24617Y11624D01*
X24611Y11579D01*
Y11340D01*
X24608Y11337D01*
X24528Y11234D01*
X24488Y11136D01*
X24434D01*
X24393Y11234D01*
X24314Y11337D01*
X24310Y11340D01*
Y12792D01*
X25322Y13804D01*
X30522D01*
X30607Y13739D01*
D02*
G37*
%LPC*%
G36*
X32781Y13594D02*
X32437D01*
Y13250D01*
X32717D01*
X32762Y13269D01*
X32781Y13315D01*
Y13594D01*
D02*
G37*
G36*
X21344Y13873D02*
X21311Y13868D01*
X21210Y13826D01*
X21124Y13760D01*
X21057Y13674D01*
X21016Y13573D01*
X21011Y13540D01*
X21344D01*
Y13873D01*
D02*
G37*
G36*
X32287Y13594D02*
X31943D01*
Y13315D01*
X31962Y13269D01*
X32008Y13250D01*
X32287D01*
Y13594D01*
D02*
G37*
G36*
X21344Y13390D02*
X21011D01*
X21016Y13356D01*
X21057Y13256D01*
X21124Y13169D01*
X21210Y13103D01*
X21311Y13061D01*
X21344Y13057D01*
Y13390D01*
D02*
G37*
G36*
X21827D02*
X21494D01*
Y13057D01*
X21527Y13061D01*
X21628Y13103D01*
X21715Y13169D01*
X21781Y13256D01*
X21823Y13356D01*
X21827Y13390D01*
D02*
G37*
G36*
X32287Y14089D02*
X32008D01*
X31962Y14070D01*
X31943Y14024D01*
Y13744D01*
X32287D01*
Y14089D01*
D02*
G37*
G36*
X32717D02*
X32437D01*
Y13744D01*
X32781D01*
Y14024D01*
X32762Y14070D01*
X32717Y14089D01*
D02*
G37*
G36*
X20419Y13973D02*
X20288Y13956D01*
X20165Y13905D01*
X20060Y13824D01*
X19979Y13719D01*
X19946Y13641D01*
X19892D01*
X19860Y13719D01*
X19779Y13824D01*
X19674Y13905D01*
X19551Y13956D01*
X19419Y13973D01*
X19288Y13956D01*
X19165Y13905D01*
X19060Y13824D01*
X18979Y13719D01*
X18946Y13641D01*
X18892D01*
X18860Y13719D01*
X18779Y13824D01*
X18674Y13905D01*
X18551Y13956D01*
X18419Y13973D01*
X18288Y13956D01*
X18165Y13905D01*
X18060Y13824D01*
X17979Y13719D01*
X17946Y13641D01*
X17892D01*
X17860Y13719D01*
X17779Y13824D01*
X17674Y13905D01*
X17551Y13956D01*
X17419Y13973D01*
X17288Y13956D01*
X17165Y13905D01*
X17060Y13824D01*
X16979Y13719D01*
X16977Y13714D01*
X16927Y13724D01*
Y13819D01*
X16915Y13877D01*
X16882Y13927D01*
X16832Y13960D01*
X16774Y13972D01*
X16065D01*
X16006Y13960D01*
X15957Y13927D01*
X15924Y13877D01*
X15912Y13819D01*
Y13110D01*
X15924Y13052D01*
X15957Y13002D01*
X16006Y12969D01*
X16065Y12957D01*
X16774D01*
X16832Y12969D01*
X16882Y13002D01*
X16915Y13052D01*
X16927Y13110D01*
Y13206D01*
X16977Y13216D01*
X16979Y13210D01*
X17060Y13105D01*
X17165Y13024D01*
X17288Y12973D01*
X17419Y12956D01*
X17551Y12973D01*
X17674Y13024D01*
X17779Y13105D01*
X17860Y13210D01*
X17892Y13288D01*
X17946D01*
X17979Y13210D01*
X18060Y13105D01*
X18165Y13024D01*
X18288Y12973D01*
X18419Y12956D01*
X18551Y12973D01*
X18674Y13024D01*
X18779Y13105D01*
X18860Y13210D01*
X18892Y13288D01*
X18946D01*
X18979Y13210D01*
X19060Y13105D01*
X19165Y13024D01*
X19288Y12973D01*
X19419Y12956D01*
X19551Y12973D01*
X19674Y13024D01*
X19779Y13105D01*
X19860Y13210D01*
X19892Y13288D01*
X19946D01*
X19979Y13210D01*
X20060Y13105D01*
X20165Y13024D01*
X20288Y12973D01*
X20419Y12956D01*
X20551Y12973D01*
X20674Y13024D01*
X20779Y13105D01*
X20860Y13210D01*
X20911Y13333D01*
X20928Y13465D01*
X20911Y13596D01*
X20860Y13719D01*
X20779Y13824D01*
X20674Y13905D01*
X20551Y13956D01*
X20419Y13973D01*
D02*
G37*
G36*
X21494Y13873D02*
Y13540D01*
X21827D01*
X21823Y13573D01*
X21781Y13674D01*
X21715Y13760D01*
X21628Y13826D01*
X21527Y13868D01*
X21494Y13873D01*
D02*
G37*
G36*
X14250Y17903D02*
X14146Y17890D01*
X14048Y17849D01*
X13965Y17785D01*
X13901Y17702D01*
X13860Y17604D01*
X13847Y17500D01*
X13860Y17396D01*
X13900Y17299D01*
Y14201D01*
X13860Y14104D01*
X13847Y14000D01*
X13860Y13896D01*
X13901Y13798D01*
X13965Y13715D01*
X14048Y13651D01*
X14146Y13610D01*
X14250Y13597D01*
X14354Y13610D01*
X14452Y13651D01*
X14535Y13715D01*
X14599Y13798D01*
X14640Y13896D01*
X14653Y14000D01*
X14640Y14104D01*
X14600Y14201D01*
Y17299D01*
X14640Y17396D01*
X14653Y17500D01*
X14640Y17604D01*
X14599Y17702D01*
X14535Y17785D01*
X14452Y17849D01*
X14354Y17890D01*
X14250Y17903D01*
D02*
G37*
G36*
X13886Y10909D02*
X13551D01*
Y10639D01*
X13570Y10593D01*
X13616Y10574D01*
X13886D01*
Y10909D01*
D02*
G37*
G36*
X35771Y12079D02*
X35468D01*
X35472Y12053D01*
X35510Y11959D01*
X35572Y11879D01*
X35652Y11817D01*
X35746Y11779D01*
X35771Y11775D01*
Y12079D01*
D02*
G37*
G36*
X36225D02*
X35921D01*
Y11775D01*
X35947Y11779D01*
X36041Y11817D01*
X36121Y11879D01*
X36183Y11959D01*
X36221Y12053D01*
X36225Y12079D01*
D02*
G37*
G36*
X14306Y11394D02*
X14036D01*
Y11059D01*
X14371D01*
Y11329D01*
X14352Y11375D01*
X14306Y11394D01*
D02*
G37*
G36*
X21371Y10909D02*
X21036D01*
Y10574D01*
X21306D01*
X21352Y10593D01*
X21371Y10639D01*
Y10909D01*
D02*
G37*
G36*
X13886Y11394D02*
X13616D01*
X13570Y11375D01*
X13551Y11329D01*
Y11059D01*
X13886D01*
Y11394D01*
D02*
G37*
G36*
X20886Y10909D02*
X20551D01*
Y10639D01*
X20570Y10593D01*
X20616Y10574D01*
X20886D01*
Y10909D01*
D02*
G37*
G36*
X14371D02*
X14036D01*
Y10574D01*
X14306D01*
X14352Y10593D01*
X14371Y10639D01*
Y10909D01*
D02*
G37*
G36*
X35921Y12532D02*
Y12229D01*
X36225D01*
X36221Y12254D01*
X36183Y12348D01*
X36121Y12428D01*
X36041Y12490D01*
X35947Y12528D01*
X35921Y12532D01*
D02*
G37*
G36*
X14300Y12653D02*
X14196Y12640D01*
X14099Y12600D01*
X13300D01*
X13209Y12588D01*
X13125Y12553D01*
X13053Y12497D01*
X12713Y12158D01*
X12658Y12086D01*
X12623Y12001D01*
X12617Y11956D01*
X12611Y11911D01*
Y11340D01*
X12608Y11337D01*
X12528Y11234D01*
X12478Y11113D01*
X12461Y10984D01*
X12478Y10855D01*
X12528Y10735D01*
X12608Y10631D01*
X12711Y10552D01*
X12831Y10502D01*
X12961Y10485D01*
X13090Y10502D01*
X13210Y10552D01*
X13314Y10631D01*
X13393Y10735D01*
X13443Y10855D01*
X13460Y10984D01*
X13443Y11113D01*
X13393Y11234D01*
X13314Y11337D01*
X13310Y11340D01*
Y11766D01*
X13445Y11900D01*
X14099D01*
X14196Y11860D01*
X14300Y11847D01*
X14404Y11860D01*
X14502Y11901D01*
X14585Y11965D01*
X14649Y12048D01*
X14690Y12146D01*
X14703Y12250D01*
X14690Y12354D01*
X14649Y12452D01*
X14585Y12535D01*
X14502Y12599D01*
X14404Y12640D01*
X14300Y12653D01*
D02*
G37*
G36*
X35771Y12532D02*
X35746Y12528D01*
X35652Y12490D01*
X35572Y12428D01*
X35510Y12348D01*
X35472Y12254D01*
X35468Y12229D01*
X35771D01*
Y12532D01*
D02*
G37*
G36*
X32271Y15382D02*
X31927D01*
Y15102D01*
X31946Y15056D01*
X31992Y15037D01*
X32271D01*
Y15382D01*
D02*
G37*
G36*
X17886Y19909D02*
X17551D01*
Y19639D01*
X17570Y19593D01*
X17616Y19574D01*
X17886D01*
Y19909D01*
D02*
G37*
G36*
X18371D02*
X18036D01*
Y19574D01*
X18306D01*
X18352Y19593D01*
X18371Y19639D01*
Y19909D01*
D02*
G37*
G36*
X14371D02*
X14036D01*
Y19574D01*
X14306D01*
X14352Y19593D01*
X14371Y19639D01*
Y19909D01*
D02*
G37*
G36*
X12961Y20484D02*
X12831Y20467D01*
X12711Y20417D01*
X12608Y20337D01*
X12528Y20234D01*
X12478Y20113D01*
X12461Y19984D01*
X12478Y19855D01*
X12528Y19735D01*
X12608Y19631D01*
X12711Y19552D01*
X12831Y19502D01*
X12961Y19485D01*
X13090Y19502D01*
X13210Y19552D01*
X13314Y19631D01*
X13393Y19735D01*
X13443Y19855D01*
X13460Y19984D01*
X13443Y20113D01*
X13393Y20234D01*
X13314Y20337D01*
X13210Y20417D01*
X13090Y20467D01*
X12961Y20484D01*
D02*
G37*
G36*
X13886Y19909D02*
X13551D01*
Y19639D01*
X13570Y19593D01*
X13616Y19574D01*
X13886D01*
Y19909D01*
D02*
G37*
G36*
Y20394D02*
X13616D01*
X13570Y20375D01*
X13551Y20329D01*
Y20059D01*
X13886D01*
Y20394D01*
D02*
G37*
G36*
X16961Y20484D02*
X16831Y20467D01*
X16711Y20417D01*
X16608Y20337D01*
X16528Y20234D01*
X16488Y20136D01*
X16434D01*
X16393Y20234D01*
X16314Y20337D01*
X16210Y20417D01*
X16090Y20467D01*
X15961Y20484D01*
X15831Y20467D01*
X15711Y20417D01*
X15608Y20337D01*
X15528Y20234D01*
X15488Y20136D01*
X15434D01*
X15393Y20234D01*
X15314Y20337D01*
X15210Y20417D01*
X15090Y20467D01*
X14961Y20484D01*
X14831Y20467D01*
X14711Y20417D01*
X14608Y20337D01*
X14528Y20234D01*
X14478Y20113D01*
X14461Y19984D01*
X14478Y19855D01*
X14528Y19735D01*
X14608Y19631D01*
X14711Y19552D01*
X14831Y19502D01*
X14961Y19485D01*
X15090Y19502D01*
X15210Y19552D01*
X15314Y19631D01*
X15393Y19735D01*
X15434Y19833D01*
X15488D01*
X15528Y19735D01*
X15608Y19631D01*
X15711Y19552D01*
X15831Y19502D01*
X15961Y19485D01*
X16090Y19502D01*
X16210Y19552D01*
X16314Y19631D01*
X16393Y19735D01*
X16434Y19833D01*
X16488D01*
X16528Y19735D01*
X16608Y19631D01*
X16711Y19552D01*
X16831Y19502D01*
X16961Y19485D01*
X17090Y19502D01*
X17210Y19552D01*
X17314Y19631D01*
X17393Y19735D01*
X17443Y19855D01*
X17460Y19984D01*
X17443Y20113D01*
X17393Y20234D01*
X17314Y20337D01*
X17210Y20417D01*
X17090Y20467D01*
X16961Y20484D01*
D02*
G37*
G36*
X26961D02*
X26831Y20467D01*
X26711Y20417D01*
X26608Y20337D01*
X26528Y20234D01*
X26488Y20136D01*
X26434D01*
X26393Y20234D01*
X26314Y20337D01*
X26210Y20417D01*
X26090Y20467D01*
X25961Y20484D01*
X25831Y20467D01*
X25711Y20417D01*
X25608Y20337D01*
X25528Y20234D01*
X25488Y20136D01*
X25434D01*
X25393Y20234D01*
X25314Y20337D01*
X25210Y20417D01*
X25090Y20467D01*
X24961Y20484D01*
X24831Y20467D01*
X24711Y20417D01*
X24608Y20337D01*
X24528Y20234D01*
X24488Y20136D01*
X24434D01*
X24393Y20234D01*
X24314Y20337D01*
X24210Y20417D01*
X24090Y20467D01*
X23961Y20484D01*
X23831Y20467D01*
X23711Y20417D01*
X23608Y20337D01*
X23528Y20234D01*
X23488Y20136D01*
X23434D01*
X23393Y20234D01*
X23314Y20337D01*
X23210Y20417D01*
X23090Y20467D01*
X22961Y20484D01*
X22831Y20467D01*
X22711Y20417D01*
X22608Y20337D01*
X22528Y20234D01*
X22488Y20136D01*
X22434D01*
X22393Y20234D01*
X22314Y20337D01*
X22210Y20417D01*
X22090Y20467D01*
X21961Y20484D01*
X21831Y20467D01*
X21711Y20417D01*
X21608Y20337D01*
X21528Y20234D01*
X21488Y20136D01*
X21434D01*
X21393Y20234D01*
X21314Y20337D01*
X21210Y20417D01*
X21090Y20467D01*
X20961Y20484D01*
X20831Y20467D01*
X20711Y20417D01*
X20608Y20337D01*
X20528Y20234D01*
X20488Y20136D01*
X20434D01*
X20393Y20234D01*
X20314Y20337D01*
X20210Y20417D01*
X20090Y20467D01*
X19961Y20484D01*
X19831Y20467D01*
X19711Y20417D01*
X19608Y20337D01*
X19528Y20234D01*
X19488Y20136D01*
X19434D01*
X19393Y20234D01*
X19314Y20337D01*
X19210Y20417D01*
X19090Y20467D01*
X18961Y20484D01*
X18831Y20467D01*
X18711Y20417D01*
X18608Y20337D01*
X18528Y20234D01*
X18478Y20113D01*
X18461Y19984D01*
X18478Y19855D01*
X18528Y19735D01*
X18608Y19631D01*
X18711Y19552D01*
X18831Y19502D01*
X18961Y19485D01*
X19090Y19502D01*
X19210Y19552D01*
X19314Y19631D01*
X19393Y19735D01*
X19434Y19833D01*
X19488D01*
X19528Y19735D01*
X19608Y19631D01*
X19711Y19552D01*
X19831Y19502D01*
X19961Y19485D01*
X20090Y19502D01*
X20210Y19552D01*
X20314Y19631D01*
X20393Y19735D01*
X20434Y19833D01*
X20488D01*
X20528Y19735D01*
X20608Y19631D01*
X20711Y19552D01*
X20831Y19502D01*
X20961Y19485D01*
X21090Y19502D01*
X21210Y19552D01*
X21314Y19631D01*
X21393Y19735D01*
X21434Y19833D01*
X21488D01*
X21528Y19735D01*
X21608Y19631D01*
X21711Y19552D01*
X21831Y19502D01*
X21961Y19485D01*
X22090Y19502D01*
X22210Y19552D01*
X22314Y19631D01*
X22393Y19735D01*
X22434Y19833D01*
X22488D01*
X22528Y19735D01*
X22608Y19631D01*
X22711Y19552D01*
X22831Y19502D01*
X22961Y19485D01*
X23090Y19502D01*
X23210Y19552D01*
X23314Y19631D01*
X23393Y19735D01*
X23434Y19833D01*
X23488D01*
X23528Y19735D01*
X23608Y19631D01*
X23711Y19552D01*
X23831Y19502D01*
X23961Y19485D01*
X24090Y19502D01*
X24210Y19552D01*
X24314Y19631D01*
X24393Y19735D01*
X24434Y19833D01*
X24488D01*
X24528Y19735D01*
X24608Y19631D01*
X24711Y19552D01*
X24831Y19502D01*
X24961Y19485D01*
X25090Y19502D01*
X25210Y19552D01*
X25314Y19631D01*
X25393Y19735D01*
X25434Y19833D01*
X25488D01*
X25528Y19735D01*
X25608Y19631D01*
X25711Y19552D01*
X25831Y19502D01*
X25961Y19485D01*
X26090Y19502D01*
X26210Y19552D01*
X26314Y19631D01*
X26393Y19735D01*
X26434Y19833D01*
X26488D01*
X26528Y19735D01*
X26608Y19631D01*
X26711Y19552D01*
X26831Y19502D01*
X26961Y19485D01*
X27090Y19502D01*
X27210Y19552D01*
X27314Y19631D01*
X27393Y19735D01*
X27443Y19855D01*
X27460Y19984D01*
X27443Y20113D01*
X27393Y20234D01*
X27314Y20337D01*
X27210Y20417D01*
X27090Y20467D01*
X26961Y20484D01*
D02*
G37*
G36*
X18306Y20394D02*
X18036D01*
Y20059D01*
X18371D01*
Y20329D01*
X18352Y20375D01*
X18306Y20394D01*
D02*
G37*
G36*
X17886D02*
X17616D01*
X17570Y20375D01*
X17551Y20329D01*
Y20059D01*
X17886D01*
Y20394D01*
D02*
G37*
G36*
X14306D02*
X14036D01*
Y20059D01*
X14371D01*
Y20329D01*
X14352Y20375D01*
X14306Y20394D01*
D02*
G37*
G36*
X10854Y15743D02*
X10844Y15741D01*
X10834Y15742D01*
X10732Y15728D01*
X10717Y15723D01*
X10712Y15723D01*
X10708Y15721D01*
X10693Y15718D01*
X10597Y15678D01*
X10585Y15670D01*
X10580Y15668D01*
X10576Y15665D01*
X10563Y15658D01*
X10480Y15595D01*
X10470Y15584D01*
X10467Y15581D01*
X10464Y15577D01*
X10452Y15567D01*
X10389Y15485D01*
X10382Y15471D01*
X10379Y15467D01*
X10378Y15463D01*
X10369Y15450D01*
X10329Y15354D01*
X10327Y15339D01*
X10325Y15335D01*
X10324Y15330D01*
X10319Y15316D01*
X10306Y15213D01*
X10307Y15198D01*
X10306Y15193D01*
X10307Y15188D01*
X10306Y15173D01*
X10319Y15070D01*
X10324Y15056D01*
X10325Y15051D01*
X10327Y15046D01*
X10329Y15032D01*
X10369Y14936D01*
X10378Y14923D01*
X10379Y14919D01*
X10382Y14915D01*
X10389Y14901D01*
X10452Y14819D01*
X10464Y14809D01*
X10467Y14805D01*
X10470Y14802D01*
X10480Y14791D01*
X10563Y14728D01*
X10576Y14721D01*
X10580Y14718D01*
X10585Y14716D01*
X10597Y14708D01*
X10693Y14668D01*
X10708Y14665D01*
X10712Y14663D01*
X10717Y14663D01*
X10732Y14658D01*
X10834Y14644D01*
X10844Y14645D01*
X10854Y14643D01*
X10864Y14645D01*
X10874Y14644D01*
X10977Y14658D01*
X10991Y14663D01*
X10996Y14663D01*
X11001Y14665D01*
X11016Y14668D01*
X11111Y14708D01*
X11124Y14716D01*
X11129Y14718D01*
X11132Y14721D01*
X11146Y14728D01*
X11228Y14791D01*
X11238Y14802D01*
X11242Y14805D01*
X11245Y14809D01*
X11256Y14819D01*
X11320Y14901D01*
X11326Y14915D01*
X11329Y14919D01*
X11331Y14923D01*
X11340Y14936D01*
X11379Y15032D01*
X11382Y15046D01*
X11384Y15051D01*
X11385Y15056D01*
X11390Y15070D01*
X11403Y15173D01*
X11402Y15188D01*
X11403Y15193D01*
X11402Y15198D01*
X11403Y15213D01*
X11390Y15316D01*
X11385Y15330D01*
X11384Y15335D01*
X11382Y15339D01*
X11379Y15354D01*
X11340Y15450D01*
X11331Y15463D01*
X11329Y15467D01*
X11326Y15471D01*
X11320Y15485D01*
X11256Y15567D01*
X11245Y15577D01*
X11242Y15581D01*
X11238Y15584D01*
X11228Y15595D01*
X11146Y15658D01*
X11132Y15665D01*
X11129Y15668D01*
X11124Y15670D01*
X11111Y15678D01*
X11016Y15718D01*
X11001Y15721D01*
X10996Y15723D01*
X10991Y15723D01*
X10977Y15728D01*
X10874Y15742D01*
X10864Y15741D01*
X10854Y15743D01*
D02*
G37*
G36*
X32287Y17169D02*
X31943D01*
Y16890D01*
X31962Y16844D01*
X32008Y16825D01*
X32287D01*
Y17169D01*
D02*
G37*
G36*
X32701Y15876D02*
X32421D01*
Y15532D01*
X32766D01*
Y15811D01*
X32747Y15857D01*
X32701Y15876D01*
D02*
G37*
G36*
X32766Y15382D02*
X32421D01*
Y15037D01*
X32701D01*
X32747Y15056D01*
X32766Y15102D01*
Y15382D01*
D02*
G37*
G36*
X32271Y15876D02*
X31992D01*
X31946Y15857D01*
X31927Y15811D01*
Y15532D01*
X32271D01*
Y15876D01*
D02*
G37*
G36*
X32781Y17169D02*
X32437D01*
Y16825D01*
X32717D01*
X32762Y16844D01*
X32781Y16890D01*
Y17169D01*
D02*
G37*
G36*
X35771Y18079D02*
X35468D01*
X35472Y18053D01*
X35510Y17959D01*
X35572Y17879D01*
X35652Y17817D01*
X35746Y17779D01*
X35771Y17775D01*
Y18079D01*
D02*
G37*
G36*
X36225D02*
X35921D01*
Y17775D01*
X35947Y17779D01*
X36041Y17817D01*
X36121Y17879D01*
X36183Y17959D01*
X36221Y18053D01*
X36225Y18079D01*
D02*
G37*
G36*
X37874Y17662D02*
X37742Y17645D01*
X37620Y17594D01*
X37514Y17513D01*
X37507Y17503D01*
X36170D01*
X36086Y17568D01*
X35970Y17616D01*
X35846Y17632D01*
X35723Y17616D01*
X35607Y17568D01*
X35508Y17492D01*
X35432Y17393D01*
X35384Y17277D01*
X35368Y17154D01*
X35384Y17030D01*
X35432Y16914D01*
X35508Y16815D01*
X35607Y16739D01*
X35723Y16691D01*
X35815Y16679D01*
Y16628D01*
X35723Y16616D01*
X35607Y16568D01*
X35508Y16492D01*
X35432Y16393D01*
X35384Y16277D01*
X35368Y16154D01*
X35384Y16030D01*
X35432Y15914D01*
X35508Y15815D01*
X35607Y15739D01*
X35723Y15691D01*
X35815Y15679D01*
Y15628D01*
X35723Y15616D01*
X35607Y15568D01*
X35508Y15492D01*
X35432Y15393D01*
X35384Y15277D01*
X35368Y15154D01*
X35384Y15030D01*
X35432Y14914D01*
X35508Y14815D01*
X35607Y14739D01*
X35723Y14691D01*
X35815Y14679D01*
Y14628D01*
X35723Y14616D01*
X35607Y14568D01*
X35508Y14492D01*
X35432Y14393D01*
X35384Y14277D01*
X35368Y14154D01*
X35384Y14030D01*
X35432Y13914D01*
X35508Y13815D01*
X35607Y13739D01*
X35723Y13691D01*
X35815Y13679D01*
Y13628D01*
X35723Y13616D01*
X35607Y13568D01*
X35508Y13492D01*
X35432Y13393D01*
X35384Y13277D01*
X35368Y13154D01*
X35384Y13030D01*
X35432Y12914D01*
X35508Y12815D01*
X35607Y12739D01*
X35723Y12691D01*
X35846Y12675D01*
X35970Y12691D01*
X36086Y12739D01*
X36185Y12815D01*
X36261Y12914D01*
X36309Y13030D01*
X36325Y13154D01*
X36309Y13277D01*
X36261Y13393D01*
X36185Y13492D01*
X36086Y13568D01*
X35970Y13616D01*
X35878Y13628D01*
Y13679D01*
X35970Y13691D01*
X36086Y13739D01*
X36170Y13804D01*
X36378D01*
X36469Y13816D01*
X36553Y13851D01*
X36625Y13906D01*
X37513Y14794D01*
X37514Y14794D01*
X37620Y14713D01*
X37625Y14711D01*
X37615Y14661D01*
X37520D01*
X37461Y14649D01*
X37412Y14616D01*
X37378Y14566D01*
X37367Y14508D01*
Y13799D01*
X37378Y13741D01*
X37412Y13691D01*
X37461Y13658D01*
X37520Y13646D01*
X38228D01*
X38287Y13658D01*
X38336Y13691D01*
X38370Y13741D01*
X38381Y13799D01*
Y14508D01*
X38370Y14566D01*
X38336Y14616D01*
X38287Y14649D01*
X38228Y14661D01*
X38133D01*
X38123Y14711D01*
X38128Y14713D01*
X38234Y14794D01*
X38315Y14899D01*
X38365Y15022D01*
X38383Y15154D01*
X38365Y15285D01*
X38315Y15408D01*
X38234Y15513D01*
X38128Y15594D01*
X38050Y15626D01*
Y15681D01*
X38128Y15713D01*
X38234Y15794D01*
X38315Y15899D01*
X38365Y16022D01*
X38383Y16154D01*
X38365Y16285D01*
X38315Y16408D01*
X38234Y16513D01*
X38128Y16594D01*
X38050Y16626D01*
Y16681D01*
X38128Y16713D01*
X38234Y16794D01*
X38315Y16899D01*
X38365Y17022D01*
X38383Y17154D01*
X38365Y17285D01*
X38315Y17408D01*
X38234Y17513D01*
X38128Y17594D01*
X38006Y17645D01*
X37874Y17662D01*
D02*
G37*
G36*
X32287Y17663D02*
X32008D01*
X31962Y17644D01*
X31943Y17598D01*
Y17319D01*
X32287D01*
Y17663D01*
D02*
G37*
G36*
X32717D02*
X32437D01*
Y17319D01*
X32781D01*
Y17598D01*
X32762Y17644D01*
X32717Y17663D01*
D02*
G37*
%LPD*%
D20*
X34362Y13669D02*
Y17244D01*
X28996Y12854D02*
X29697Y12154D01*
X26236Y12854D02*
X28996D01*
X24961Y11579D02*
X26236Y12854D01*
X25193Y15154D02*
X30846D01*
X22961Y12921D02*
X25193Y15154D01*
X22961Y10984D02*
Y12921D01*
X25177Y14154D02*
X30846D01*
X23961Y12937D02*
X25177Y14154D01*
X23961Y10984D02*
Y12937D01*
X24961Y10984D02*
Y11579D01*
X17961Y10984D02*
X18676Y11700D01*
X21471D01*
X22021Y12250D01*
X18226D02*
X20021D01*
X16961Y10984D02*
X18226Y12250D01*
X13300D02*
X14300D01*
X12961Y11911D02*
X13300Y12250D01*
X12961Y10984D02*
Y11911D01*
X14250Y14000D02*
Y17500D01*
X26535Y12154D02*
X28122D01*
X25961Y11579D02*
X26535Y12154D01*
X28122D02*
X29291Y10984D01*
X31260D01*
X32047Y11772D01*
Y12366D01*
X31260Y13154D02*
X32047Y12366D01*
X30846Y13154D02*
X31260D01*
X29697Y12154D02*
X30846D01*
X35846Y17154D02*
X37874D01*
X35846Y16154D02*
X37874D01*
X35846Y14154D02*
X36378D01*
X37378Y15154D01*
X37874D01*
X34362Y17669D02*
X35846Y19154D01*
X34362Y17244D02*
Y17669D01*
X25961Y10984D02*
Y11579D01*
D21*
X38740Y10000D02*
Y20960D01*
X10000Y10000D02*
X38740D01*
X10000Y20960D02*
X38740D01*
X10000Y10000D02*
Y20960D01*
D22*
X30846Y16154D02*
D03*
X35846D02*
D03*
X30846Y15154D02*
D03*
Y14154D02*
D03*
Y13154D02*
D03*
Y12154D02*
D03*
Y17154D02*
D03*
Y18154D02*
D03*
X35846Y17154D02*
D03*
Y18154D02*
D03*
Y19154D02*
D03*
Y15154D02*
D03*
Y14154D02*
D03*
Y13154D02*
D03*
Y12154D02*
D03*
D23*
X30846Y19154D02*
D03*
D24*
X21419Y13465D02*
D03*
X20419D02*
D03*
X19419D02*
D03*
X17419D02*
D03*
X18419D02*
D03*
X37874Y17154D02*
D03*
Y15154D02*
D03*
Y16154D02*
D03*
X34362Y17244D02*
D03*
X33362D02*
D03*
X34346Y15457D02*
D03*
X33346D02*
D03*
X34362Y13669D02*
D03*
X33362D02*
D03*
D25*
X16419Y13465D02*
D03*
X32362Y17244D02*
D03*
X32346Y15457D02*
D03*
X32362Y13669D02*
D03*
D26*
X12961Y10984D02*
D03*
X14961D02*
D03*
X15961D02*
D03*
X16961D02*
D03*
X17961D02*
D03*
X18961D02*
D03*
X19961D02*
D03*
X21961D02*
D03*
X22961D02*
D03*
X23961D02*
D03*
X24961D02*
D03*
X25961D02*
D03*
X26961D02*
D03*
X12961Y19984D02*
D03*
X14961D02*
D03*
X15961D02*
D03*
X16961D02*
D03*
X18961D02*
D03*
X19961D02*
D03*
X20961D02*
D03*
X21961D02*
D03*
X22961D02*
D03*
X23961D02*
D03*
X24961D02*
D03*
X25961D02*
D03*
X26961D02*
D03*
D27*
X13961Y10984D02*
D03*
X20961D02*
D03*
X13961Y19984D02*
D03*
X17961D02*
D03*
D28*
X37874Y14154D02*
D03*
D29*
X10854Y15193D02*
D03*
D30*
X10984Y10984D02*
D03*
X37756Y19976D02*
D03*
D31*
X27717Y16154D02*
D03*
X37000Y18000D02*
D03*
X34000Y12000D02*
D03*
X30000Y16000D02*
D03*
X26000D02*
D03*
X23000Y14000D02*
D03*
X21000Y18000D02*
D03*
Y14000D02*
D03*
X15000Y18000D02*
D03*
X12000Y16000D02*
D03*
X13000Y14000D02*
D03*
X25354Y13150D02*
D03*
X29488Y16791D02*
D03*
X27950Y20400D02*
D03*
X11200Y18900D02*
D03*
X10650Y12350D02*
D03*
Y18100D02*
D03*
X19550Y17100D02*
D03*
X21450Y19050D02*
D03*
X26400Y19154D02*
D03*
X24850Y19150D02*
D03*
X29488Y17874D02*
D03*
X31700Y19100D02*
D03*
X29850Y13250D02*
D03*
X35000Y12154D02*
D03*
X36750D02*
D03*
X35150Y17500D02*
D03*
X28250Y10800D02*
D03*
X25750Y17550D02*
D03*
X14250Y17500D02*
D03*
Y14000D02*
D03*
X14300Y12250D02*
D03*
X22021D02*
D03*
X20021D02*
D03*
X26240Y18071D02*
D03*
X25256D02*
D03*
X26240Y17087D02*
D03*
X25256D02*
D03*
M02*
