G04 Layer_Color=65535*
%FSLAX24Y24*%
%MOIN*%
G70*
G01*
G75*
%ADD21C,0.0050*%
%ADD32C,0.0079*%
%ADD33C,0.0118*%
%ADD34C,0.0157*%
%ADD35C,0.0100*%
%ADD36C,0.0080*%
G36*
X31620Y13365D02*
X31653Y13331D01*
X31671Y13288D01*
Y13264D01*
Y13241D01*
X31653Y13198D01*
X31620Y13164D01*
X31577Y13146D01*
X31530D01*
X31486Y13164D01*
X31453Y13198D01*
X31435Y13241D01*
Y13264D01*
Y13288D01*
X31453Y13331D01*
X31486Y13365D01*
X31530Y13383D01*
X31577D01*
X31620Y13365D01*
D02*
G37*
G36*
X15677Y13160D02*
X15710Y13127D01*
X15728Y13083D01*
Y13060D01*
Y13036D01*
X15710Y12993D01*
X15677Y12960D01*
X15634Y12942D01*
X15587D01*
X15543Y12960D01*
X15510Y12993D01*
X15492Y13036D01*
Y13060D01*
Y13083D01*
X15510Y13127D01*
X15543Y13160D01*
X15587Y13178D01*
X15634D01*
X15677Y13160D01*
D02*
G37*
G36*
X38346Y13445D02*
X38379Y13411D01*
X38397Y13368D01*
Y13321D01*
X38379Y13278D01*
X38346Y13244D01*
X38302Y13226D01*
X38255D01*
X38212Y13244D01*
X38179Y13278D01*
X38161Y13321D01*
Y13368D01*
X38179Y13411D01*
X38212Y13445D01*
X38255Y13463D01*
X38302D01*
X38346Y13445D01*
D02*
G37*
G36*
X31620Y16939D02*
X31653Y16906D01*
X31671Y16863D01*
Y16839D01*
Y16816D01*
X31653Y16772D01*
X31620Y16739D01*
X31577Y16721D01*
X31530D01*
X31486Y16739D01*
X31453Y16772D01*
X31435Y16816D01*
Y16839D01*
Y16863D01*
X31453Y16906D01*
X31486Y16939D01*
X31530Y16957D01*
X31577D01*
X31620Y16939D01*
D02*
G37*
G36*
X31604Y15152D02*
X31637Y15119D01*
X31655Y15075D01*
Y15052D01*
Y15028D01*
X31637Y14985D01*
X31604Y14952D01*
X31561Y14934D01*
X31514D01*
X31470Y14952D01*
X31437Y14985D01*
X31419Y15028D01*
Y15052D01*
Y15075D01*
X31437Y15119D01*
X31470Y15152D01*
X31514Y15170D01*
X31561D01*
X31604Y15152D01*
D02*
G37*
D21*
X30346Y19654D02*
X36346D01*
X30346Y11654D02*
Y19654D01*
X36346Y11654D02*
Y19654D01*
X30346Y11654D02*
X36346D01*
X26323Y13067D02*
Y16374D01*
X22189Y13067D02*
Y16374D01*
X25496Y17201D02*
X26323Y16374D01*
X22189D02*
X23016Y17201D01*
X23689D01*
X24823D02*
X25496D01*
X22189Y13067D02*
X23689D01*
X24823D02*
X26323D01*
X19007Y15858D02*
Y18512D01*
X16558D02*
X19007D01*
X16558Y15858D02*
X19007D01*
X13709Y13421D02*
X15382D01*
X9673D02*
X10992D01*
X15382D02*
Y14150D01*
Y15724D02*
Y16965D01*
X13709D02*
X15382D01*
X9673D02*
X10992D01*
X9673Y13421D02*
Y16965D01*
X38740Y10000D02*
Y20960D01*
X10000Y10000D02*
X38740D01*
X10000Y20960D02*
X38740D01*
X10000Y10000D02*
Y20960D01*
D32*
X30000Y19197D02*
G03*
X30000Y19197I-39J0D01*
G01*
X24295Y18390D02*
G03*
X24295Y18390I-39J0D01*
G01*
X15919Y12965D02*
X21919D01*
X15919D02*
Y13965D01*
X21919D01*
Y12965D02*
Y13965D01*
X38374Y13654D02*
Y17654D01*
X37374Y13654D02*
X38374D01*
X37374D02*
Y17654D01*
X38374D01*
X34862Y16744D02*
Y17744D01*
X31862D02*
X34862D01*
X31862Y16744D02*
Y17744D01*
Y16744D02*
X34862D01*
X34846Y14957D02*
Y15957D01*
X31846D02*
X34846D01*
X31846Y14957D02*
Y15957D01*
Y14957D02*
X34846D01*
X34862Y13169D02*
Y14169D01*
X31862D02*
X34862D01*
X31862Y13169D02*
Y14169D01*
Y13169D02*
X34862D01*
D33*
X20728Y16280D02*
G03*
X20728Y16280I-39J0D01*
G01*
X32047Y20535D02*
Y19984D01*
X32323D01*
X32415Y20076D01*
Y20168D01*
X32323Y20260D01*
X32047D01*
X32323D01*
X32415Y20352D01*
Y20443D01*
X32323Y20535D01*
X32047D01*
X32874Y19984D02*
X32690D01*
X32598Y20076D01*
Y20260D01*
X32690Y20352D01*
X32874D01*
X32966Y20260D01*
Y20168D01*
X32598D01*
X33149Y19984D02*
Y20352D01*
X33425D01*
X33517Y20260D01*
Y19984D01*
X34251Y20535D02*
Y19984D01*
X34527D01*
X34619Y20076D01*
Y20168D01*
X34527Y20260D01*
X34251D01*
X34527D01*
X34619Y20352D01*
Y20443D01*
X34527Y20535D01*
X34251D01*
X28570Y10609D02*
Y11160D01*
X28754Y10976D01*
X28937Y11160D01*
Y10609D01*
X29213D02*
X29397D01*
X29488Y10701D01*
Y10884D01*
X29397Y10976D01*
X29213D01*
X29121Y10884D01*
Y10701D01*
X29213Y10609D01*
X29764Y11068D02*
Y10976D01*
X29672D01*
X29856D01*
X29764D01*
Y10701D01*
X29856Y10609D01*
X30223D02*
X30407D01*
X30499Y10701D01*
Y10884D01*
X30407Y10976D01*
X30223D01*
X30131Y10884D01*
Y10701D01*
X30223Y10609D01*
X30682Y10976D02*
Y10609D01*
Y10792D01*
X30774Y10884D01*
X30866Y10976D01*
X30958D01*
X31233Y10609D02*
X31417D01*
X31325D01*
Y10976D01*
X31233D01*
X31692D02*
X32060D01*
X31692Y10609D01*
X32060D01*
X32519D02*
X32335D01*
X32243Y10701D01*
Y10884D01*
X32335Y10976D01*
X32519D01*
X32611Y10884D01*
Y10792D01*
X32243D01*
X33162Y11160D02*
Y10609D01*
X32886D01*
X32794Y10701D01*
Y10884D01*
X32886Y10976D01*
X33162D01*
X33896Y11160D02*
Y10609D01*
X34172D01*
X34264Y10701D01*
Y10792D01*
X34172Y10884D01*
X33896D01*
X34172D01*
X34264Y10976D01*
Y11068D01*
X34172Y11160D01*
X33896D01*
X34447Y10609D02*
X34631D01*
X34539D01*
Y11160D01*
X34447D01*
X34907Y10609D02*
X35090D01*
X34998D01*
Y10976D01*
X34907D01*
X35366Y10609D02*
Y10976D01*
X35641D01*
X35733Y10884D01*
Y10609D01*
X36284Y11160D02*
Y10609D01*
X36009D01*
X35917Y10701D01*
Y10884D01*
X36009Y10976D01*
X36284D01*
X36468Y10609D02*
X36743D01*
X36835Y10701D01*
X36743Y10792D01*
X36560D01*
X36468Y10884D01*
X36560Y10976D01*
X36835D01*
X37570Y11160D02*
Y10792D01*
X37753Y10609D01*
X37937Y10792D01*
Y11160D01*
X38488Y10609D02*
X38121D01*
X38488Y10976D01*
Y11068D01*
X38396Y11160D01*
X38213D01*
X38121Y11068D01*
D34*
X17275Y14925D02*
G03*
X17275Y14925I-79J0D01*
G01*
D35*
X12361Y10384D02*
Y20584D01*
X27561Y10384D02*
Y20584D01*
X12361Y10384D02*
X27561D01*
X12361Y20584D02*
X27561D01*
D36*
X14035Y12559D02*
Y12809D01*
X14160D01*
X14202Y12767D01*
Y12684D01*
X14160Y12642D01*
X14035D01*
X14119D02*
X14202Y12559D01*
X14452D02*
X14285D01*
X14452Y12726D01*
Y12767D01*
X14410Y12809D01*
X14327D01*
X14285Y12767D01*
X15217Y11772D02*
X14967D01*
Y11897D01*
X15008Y11938D01*
X15092D01*
X15133Y11897D01*
Y11772D01*
Y11855D02*
X15217Y11938D01*
X15008Y12022D02*
X14967Y12063D01*
Y12147D01*
X15008Y12188D01*
X15050D01*
X15092Y12147D01*
Y12105D01*
Y12147D01*
X15133Y12188D01*
X15175D01*
X15217Y12147D01*
Y12063D01*
X15175Y12022D01*
X21000Y12500D02*
Y12750D01*
X21125D01*
X21167Y12708D01*
Y12625D01*
X21125Y12583D01*
X21000D01*
X21083D02*
X21167Y12500D01*
X21250Y12750D02*
X21417D01*
Y12708D01*
X21250Y12542D01*
Y12500D01*
X19000D02*
Y12750D01*
X19125D01*
X19167Y12708D01*
Y12625D01*
X19125Y12583D01*
X19000D01*
X19083D02*
X19167Y12500D01*
X19417Y12750D02*
X19333Y12708D01*
X19250Y12625D01*
Y12542D01*
X19292Y12500D01*
X19375D01*
X19417Y12542D01*
Y12583D01*
X19375Y12625D01*
X19250D01*
X17500Y12500D02*
Y12750D01*
X17625D01*
X17667Y12708D01*
Y12625D01*
X17625Y12583D01*
X17500D01*
X17583D02*
X17667Y12500D01*
X17917Y12750D02*
X17750D01*
Y12625D01*
X17833Y12667D01*
X17875D01*
X17917Y12625D01*
Y12542D01*
X17875Y12500D01*
X17792D01*
X17750Y12542D01*
X16000Y12500D02*
Y12750D01*
X16125D01*
X16167Y12708D01*
Y12625D01*
X16125Y12583D01*
X16000D01*
X16083D02*
X16167Y12500D01*
X16375D02*
Y12750D01*
X16250Y12625D01*
X16417D01*
X16167Y14403D02*
X16083D01*
X16125D01*
Y14195D01*
X16083Y14154D01*
X16042D01*
X16000Y14195D01*
X16250Y14154D02*
Y14403D01*
X16375D01*
X16417Y14362D01*
Y14279D01*
X16375Y14237D01*
X16250D01*
X16625Y14154D02*
Y14403D01*
X16500Y14279D01*
X16666D01*
X11667Y20708D02*
X11625Y20750D01*
X11542D01*
X11500Y20708D01*
Y20542D01*
X11542Y20500D01*
X11625D01*
X11667Y20542D01*
X11750Y20708D02*
X11792Y20750D01*
X11875D01*
X11917Y20708D01*
Y20667D01*
X11875Y20625D01*
X11833D01*
X11875D01*
X11917Y20583D01*
Y20542D01*
X11875Y20500D01*
X11792D01*
X11750Y20542D01*
X10417Y17750D02*
X10333D01*
X10375D01*
Y17542D01*
X10333Y17500D01*
X10292D01*
X10250Y17542D01*
X10500Y17500D02*
X10583D01*
X10542D01*
Y17750D01*
X10500Y17708D01*
X15874Y18750D02*
Y18542D01*
X15916Y18500D01*
X15999D01*
X16041Y18542D01*
Y18750D01*
X16124Y18500D02*
X16207D01*
X16166D01*
Y18750D01*
X16124Y18708D01*
X32017Y14482D02*
X31934D01*
X31975D01*
Y14274D01*
X31934Y14232D01*
X31892D01*
X31850Y14274D01*
X32100Y14232D02*
Y14482D01*
X32225D01*
X32267Y14441D01*
Y14357D01*
X32225Y14316D01*
X32100D01*
X32350Y14441D02*
X32392Y14482D01*
X32475D01*
X32517Y14441D01*
Y14399D01*
X32475Y14357D01*
X32434D01*
X32475D01*
X32517Y14316D01*
Y14274D01*
X32475Y14232D01*
X32392D01*
X32350Y14274D01*
X32017Y16254D02*
X31934D01*
X31975D01*
Y16046D01*
X31934Y16004D01*
X31892D01*
X31850Y16046D01*
X32100Y16004D02*
Y16254D01*
X32225D01*
X32267Y16212D01*
Y16129D01*
X32225Y16087D01*
X32100D01*
X32517Y16004D02*
X32350D01*
X32517Y16171D01*
Y16212D01*
X32475Y16254D01*
X32392D01*
X32350Y16212D01*
X32017Y18026D02*
X31934D01*
X31975D01*
Y17817D01*
X31934Y17776D01*
X31892D01*
X31850Y17817D01*
X32100Y17776D02*
Y18026D01*
X32225D01*
X32267Y17984D01*
Y17901D01*
X32225Y17859D01*
X32100D01*
X32350Y17776D02*
X32434D01*
X32392D01*
Y18026D01*
X32350Y17984D01*
X37577Y18220D02*
X37493D01*
X37535D01*
Y18012D01*
X37493Y17970D01*
X37452D01*
X37410Y18012D01*
X37827Y17970D02*
X37660D01*
X37827Y18137D01*
Y18178D01*
X37785Y18220D01*
X37702D01*
X37660Y18178D01*
X21663Y15362D02*
X21621Y15403D01*
X21538D01*
X21496Y15362D01*
Y15195D01*
X21538Y15154D01*
X21621D01*
X21663Y15195D01*
X21913Y15403D02*
X21746D01*
Y15279D01*
X21829Y15320D01*
X21871D01*
X21913Y15279D01*
Y15195D01*
X21871Y15154D01*
X21788D01*
X21746Y15195D01*
X11021Y20708D02*
X10979Y20750D01*
X10896D01*
X10854Y20708D01*
Y20542D01*
X10896Y20500D01*
X10979D01*
X11021Y20542D01*
X11229Y20500D02*
Y20750D01*
X11104Y20625D01*
X11271D01*
X20586Y18708D02*
X20544Y18750D01*
X20461D01*
X20419Y18708D01*
Y18542D01*
X20461Y18500D01*
X20544D01*
X20586Y18542D01*
X20836Y18500D02*
X20669D01*
X20836Y18667D01*
Y18708D01*
X20794Y18750D01*
X20711D01*
X20669Y18708D01*
X20797Y17313D02*
Y17372D01*
X20738Y17431D01*
X20679D01*
X20561Y17313D01*
Y17254D01*
X20620Y17195D01*
X20679D01*
X20708Y17107D02*
X20767Y17048D01*
X20738Y17077D01*
X20914Y17254D01*
X20855D01*
X30500Y19935D02*
Y20101D01*
X30583Y20185D01*
X30667Y20101D01*
Y19935D01*
Y20060D01*
X30500D01*
X30917Y19935D02*
X30750D01*
X30917Y20101D01*
Y20143D01*
X30875Y20185D01*
X30792D01*
X30750Y20143D01*
X29094Y15610D02*
X28845D01*
Y15735D01*
X28886Y15777D01*
X28970D01*
X29011Y15735D01*
Y15610D01*
Y15694D02*
X29094Y15777D01*
Y15860D02*
Y15943D01*
Y15902D01*
X28845D01*
X28886Y15860D01*
X12961Y19000D02*
Y19167D01*
X13044Y19250D01*
X13127Y19167D01*
Y19000D01*
Y19125D01*
X12961D01*
X13211Y19000D02*
X13294D01*
X13252D01*
Y19250D01*
X13211Y19208D01*
M02*
