G04 Layer_Color=16711935*
%FSLAX24Y24*%
%MOIN*%
G70*
G01*
G75*
%ADD20C,0.0100*%
%ADD21C,0.0050*%
%ADD43C,0.0827*%
%ADD44C,0.0690*%
%ADD45R,0.0690X0.0690*%
%ADD46C,0.0749*%
%ADD47R,0.0749X0.0749*%
%ADD48C,0.0730*%
%ADD49R,0.0730X0.0730*%
%ADD50R,0.0749X0.0749*%
%ADD51C,0.1300*%
%ADD52C,0.0540*%
D20*
X24252Y2100D02*
Y1100D01*
X24752D01*
X24918Y1267D01*
Y1933D01*
X24752Y2100D01*
X24252D01*
X25251Y1100D02*
Y2100D01*
X25751D01*
X25918Y1933D01*
Y1600D01*
X25751Y1433D01*
X25251D01*
X25585D02*
X25918Y1100D01*
X26251Y2100D02*
Y1100D01*
X26918D01*
X27251Y1600D02*
X27917D01*
X28250Y1100D02*
X28584D01*
X28417D01*
Y2100D01*
X28250Y1933D01*
X29750Y1100D02*
X29083D01*
X29750Y1766D01*
Y1933D01*
X29583Y2100D01*
X29250D01*
X29083Y1933D01*
X30083D02*
X30250Y2100D01*
X30583D01*
X30750Y1933D01*
Y1267D01*
X30583Y1100D01*
X30250D01*
X30083Y1267D01*
Y1933D01*
X31083D02*
X31249Y2100D01*
X31583D01*
X31749Y1933D01*
Y1267D01*
X31583Y1100D01*
X31249D01*
X31083Y1267D01*
Y1933D01*
X32083Y1100D02*
Y2100D01*
X32582D01*
X32749Y1933D01*
Y1600D01*
X32582Y1433D01*
X32083D01*
X33082Y1600D02*
X33749D01*
X34748Y1933D02*
X34582Y2100D01*
X34248D01*
X34082Y1933D01*
Y1267D01*
X34248Y1100D01*
X34582D01*
X34748Y1267D01*
X20670Y4350D02*
Y3350D01*
X21169D01*
X21336Y3517D01*
Y3683D01*
X21169Y3850D01*
X20670D01*
X21169D01*
X21336Y4016D01*
Y4183D01*
X21169Y4350D01*
X20670D01*
X22169D02*
X21836D01*
X21669Y4183D01*
Y3517D01*
X21836Y3350D01*
X22169D01*
X22336Y3517D01*
Y4183D01*
X22169Y4350D01*
X22669D02*
X23335D01*
X23002D01*
Y3350D01*
X23669Y4350D02*
X24335D01*
X24002D01*
Y3350D01*
X25168Y4350D02*
X24835D01*
X24668Y4183D01*
Y3517D01*
X24835Y3350D01*
X25168D01*
X25335Y3517D01*
Y4183D01*
X25168Y4350D01*
X25668Y3350D02*
Y4350D01*
X26001Y4016D01*
X26334Y4350D01*
Y3350D01*
X28334Y4183D02*
X28167Y4350D01*
X27834D01*
X27667Y4183D01*
Y4016D01*
X27834Y3850D01*
X28167D01*
X28334Y3683D01*
Y3517D01*
X28167Y3350D01*
X27834D01*
X27667Y3517D01*
X29167Y4350D02*
X28834D01*
X28667Y4183D01*
Y3517D01*
X28834Y3350D01*
X29167D01*
X29333Y3517D01*
Y4183D01*
X29167Y4350D01*
X29667D02*
Y3350D01*
X30333D01*
X30666Y4350D02*
Y3350D01*
X31166D01*
X31333Y3517D01*
Y4183D01*
X31166Y4350D01*
X30666D01*
X32332D02*
X31666D01*
Y3350D01*
X32332D01*
X31666Y3850D02*
X31999D01*
X32666Y3350D02*
Y4350D01*
X33165D01*
X33332Y4183D01*
Y3850D01*
X33165Y3683D01*
X32666D01*
X32999D02*
X33332Y3350D01*
X34665D02*
Y4350D01*
X34998Y4016D01*
X35331Y4350D01*
Y3350D01*
X35665D02*
Y4016D01*
X35998Y4350D01*
X36331Y4016D01*
Y3350D01*
Y3850D01*
X35665D01*
X37331Y4183D02*
X37164Y4350D01*
X36831D01*
X36664Y4183D01*
Y4016D01*
X36831Y3850D01*
X37164D01*
X37331Y3683D01*
Y3517D01*
X37164Y3350D01*
X36831D01*
X36664Y3517D01*
X37664Y4350D02*
Y3350D01*
Y3683D01*
X38330Y4350D01*
X37831Y3850D01*
X38330Y3350D01*
D21*
X10000Y20827D02*
X38740D01*
Y10000D02*
Y20827D01*
X10000Y10000D02*
Y20827D01*
Y10000D02*
X38740D01*
D43*
X10854Y14996D02*
D03*
D44*
X30846Y15957D02*
D03*
X35846D02*
D03*
X30846Y14957D02*
D03*
Y13957D02*
D03*
Y12957D02*
D03*
Y11957D02*
D03*
Y16957D02*
D03*
Y17957D02*
D03*
X35846Y16957D02*
D03*
Y17957D02*
D03*
Y18957D02*
D03*
Y14957D02*
D03*
Y13957D02*
D03*
Y12957D02*
D03*
Y11957D02*
D03*
D45*
X30846Y18957D02*
D03*
D46*
X37874Y16957D02*
D03*
Y14957D02*
D03*
Y15957D02*
D03*
X34362Y13472D02*
D03*
X33362D02*
D03*
X34346Y15260D02*
D03*
X33346D02*
D03*
X34362Y17047D02*
D03*
X33362D02*
D03*
D47*
X37874Y13957D02*
D03*
D48*
X12961Y10787D02*
D03*
X14961D02*
D03*
X15961D02*
D03*
X16961D02*
D03*
X17961D02*
D03*
X18961D02*
D03*
X19961D02*
D03*
X21961D02*
D03*
X22961D02*
D03*
X23961D02*
D03*
X24961D02*
D03*
X25961D02*
D03*
X26961D02*
D03*
X12961Y19787D02*
D03*
X14961D02*
D03*
X15961D02*
D03*
X16961D02*
D03*
X18961D02*
D03*
X19961D02*
D03*
X20961D02*
D03*
X21961D02*
D03*
X22961D02*
D03*
X23961D02*
D03*
X24961D02*
D03*
X25961D02*
D03*
X26961D02*
D03*
D49*
X13961Y10787D02*
D03*
X20961D02*
D03*
X13961Y19787D02*
D03*
X17961D02*
D03*
D50*
X32362Y13472D02*
D03*
X32346Y15260D02*
D03*
X32362Y17047D02*
D03*
D51*
X10886Y10886D02*
D03*
X37854Y19941D02*
D03*
D52*
X37920Y18169D02*
D03*
X36870Y17957D02*
D03*
X28012Y20236D02*
D03*
X29882Y13051D02*
D03*
X32362Y10689D02*
D03*
X28110Y10787D02*
D03*
X29980Y17874D02*
D03*
X29193Y15709D02*
D03*
X25748Y17382D02*
D03*
X26240Y17874D02*
D03*
X25256D02*
D03*
X26240Y16890D02*
D03*
X25256D02*
D03*
X11045Y13781D02*
D03*
X11670Y15031D02*
D03*
X11045Y16281D02*
D03*
Y18781D02*
D03*
X12295Y11281D02*
D03*
Y13781D02*
D03*
X12920Y15031D02*
D03*
X12295Y16281D02*
D03*
Y18781D02*
D03*
X14170Y12531D02*
D03*
X13545Y13781D02*
D03*
X14170Y15031D02*
D03*
X13545Y16281D02*
D03*
X14170Y17531D02*
D03*
X15420Y12531D02*
D03*
X14795Y16281D02*
D03*
X15420Y17531D02*
D03*
X16670Y12531D02*
D03*
X17920D02*
D03*
X17295Y13781D02*
D03*
X19170Y12531D02*
D03*
X18545Y13781D02*
D03*
X19170Y15031D02*
D03*
Y17531D02*
D03*
X18545Y18781D02*
D03*
X20420Y12531D02*
D03*
X19795Y13781D02*
D03*
X20420Y15031D02*
D03*
X19795Y18781D02*
D03*
X21670Y12531D02*
D03*
X21045Y13781D02*
D03*
X21670Y15031D02*
D03*
X21045Y18781D02*
D03*
X22295D02*
D03*
X24170Y12531D02*
D03*
X24795Y18781D02*
D03*
X26045D02*
D03*
X29170Y17531D02*
D03*
X29795Y16281D02*
D03*
X32920Y12531D02*
D03*
X32295Y18781D02*
D03*
X33545Y11281D02*
D03*
X34170Y12531D02*
D03*
X33545Y18781D02*
D03*
X34795Y11281D02*
D03*
X36045D02*
D03*
X36670Y12531D02*
D03*
X37295Y11281D02*
D03*
X37920Y12531D02*
D03*
X37295Y18781D02*
D03*
M02*
