G04 Layer_Color=65535*
%FSLAX24Y24*%
%MOIN*%
G70*
G01*
G75*
%ADD20C,0.0100*%
%ADD21C,0.0050*%
%ADD32C,0.0079*%
%ADD33C,0.0157*%
G36*
X38346Y13248D02*
X38379Y13214D01*
X38397Y13171D01*
Y13124D01*
X38379Y13081D01*
X38346Y13047D01*
X38302Y13029D01*
X38255D01*
X38212Y13047D01*
X38179Y13081D01*
X38161Y13124D01*
Y13171D01*
X38179Y13214D01*
X38212Y13248D01*
X38255Y13266D01*
X38302D01*
X38346Y13248D01*
D02*
G37*
G36*
X31620Y13168D02*
X31653Y13135D01*
X31671Y13091D01*
Y13068D01*
Y13044D01*
X31653Y13001D01*
X31620Y12968D01*
X31577Y12950D01*
X31530D01*
X31486Y12968D01*
X31453Y13001D01*
X31435Y13044D01*
Y13068D01*
Y13091D01*
X31453Y13135D01*
X31486Y13168D01*
X31530Y13186D01*
X31577D01*
X31620Y13168D01*
D02*
G37*
G36*
Y16743D02*
X31653Y16709D01*
X31671Y16666D01*
Y16642D01*
Y16619D01*
X31653Y16576D01*
X31620Y16542D01*
X31577Y16524D01*
X31530D01*
X31486Y16542D01*
X31453Y16576D01*
X31435Y16619D01*
Y16642D01*
Y16666D01*
X31453Y16709D01*
X31486Y16743D01*
X31530Y16761D01*
X31577D01*
X31620Y16743D01*
D02*
G37*
G36*
X31604Y14955D02*
X31637Y14922D01*
X31655Y14879D01*
Y14855D01*
Y14832D01*
X31637Y14788D01*
X31604Y14755D01*
X31561Y14737D01*
X31514D01*
X31470Y14755D01*
X31437Y14788D01*
X31419Y14832D01*
Y14855D01*
Y14879D01*
X31437Y14922D01*
X31470Y14955D01*
X31514Y14973D01*
X31561D01*
X31604Y14955D01*
D02*
G37*
D20*
X12361Y10187D02*
Y20387D01*
X27561Y10187D02*
Y20387D01*
X12361Y10187D02*
X27561D01*
X12361Y20387D02*
X27561D01*
X11743Y20471D02*
X11676Y20538D01*
X11543D01*
X11476Y20471D01*
Y20204D01*
X11543Y20138D01*
X11676D01*
X11743Y20204D01*
X11876Y20471D02*
X11943Y20538D01*
X12076D01*
X12143Y20471D01*
Y20404D01*
X12076Y20338D01*
X12010D01*
X12076D01*
X12143Y20271D01*
Y20204D01*
X12076Y20138D01*
X11943D01*
X11876Y20204D01*
X10553Y19420D02*
X10486Y19353D01*
Y19220D01*
X10553Y19154D01*
X10819D01*
X10886Y19220D01*
Y19353D01*
X10819Y19420D01*
X10886Y19753D02*
X10486D01*
X10686Y19553D01*
Y19820D01*
X14337Y12765D02*
X14137D01*
X14237D01*
Y12265D01*
X14137Y12165D01*
X14037D01*
X13937Y12265D01*
X14537Y12165D02*
X14737D01*
X14637D01*
Y12765D01*
X14537Y12665D01*
X16780Y16639D02*
Y16139D01*
X16880Y16039D01*
X17079D01*
X17179Y16139D01*
Y16639D01*
X17379Y16039D02*
X17579D01*
X17479D01*
Y16639D01*
X17379Y16539D01*
X32250Y14635D02*
X32050D01*
X32150D01*
Y14135D01*
X32050Y14035D01*
X31950D01*
X31850Y14135D01*
X32450Y14035D02*
Y14635D01*
X32750D01*
X32850Y14535D01*
Y14335D01*
X32750Y14235D01*
X32450D01*
X33050Y14535D02*
X33150Y14635D01*
X33350D01*
X33450Y14535D01*
Y14435D01*
X33350Y14335D01*
X33250D01*
X33350D01*
X33450Y14235D01*
Y14135D01*
X33350Y14035D01*
X33150D01*
X33050Y14135D01*
X32250Y16407D02*
X32050D01*
X32150D01*
Y15907D01*
X32050Y15807D01*
X31950D01*
X31850Y15907D01*
X32450Y15807D02*
Y16407D01*
X32750D01*
X32850Y16307D01*
Y16107D01*
X32750Y16007D01*
X32450D01*
X33450Y15807D02*
X33050D01*
X33450Y16207D01*
Y16307D01*
X33350Y16407D01*
X33150D01*
X33050Y16307D01*
X32250Y18179D02*
X32050D01*
X32150D01*
Y17679D01*
X32050Y17579D01*
X31950D01*
X31850Y17679D01*
X32450Y17579D02*
Y18179D01*
X32750D01*
X32850Y18079D01*
Y17879D01*
X32750Y17779D01*
X32450D01*
X33050Y17579D02*
X33250D01*
X33150D01*
Y18179D01*
X33050Y18079D01*
X37838Y18399D02*
X37638D01*
X37738D01*
Y17900D01*
X37638Y17800D01*
X37538D01*
X37438Y17900D01*
X38437Y17800D02*
X38038D01*
X38437Y18200D01*
Y18300D01*
X38337Y18399D01*
X38137D01*
X38038Y18300D01*
X21298Y12649D02*
X21198Y12749D01*
X20998D01*
X20898Y12649D01*
Y12250D01*
X20998Y12150D01*
X21198D01*
X21298Y12250D01*
X21897Y12749D02*
X21497D01*
Y12450D01*
X21697Y12549D01*
X21797D01*
X21897Y12450D01*
Y12250D01*
X21797Y12150D01*
X21597D01*
X21497Y12250D01*
X15099Y17817D02*
X14999Y17717D01*
Y17517D01*
X15099Y17417D01*
X15498D01*
X15598Y17517D01*
Y17717D01*
X15498Y17817D01*
X15598Y18417D02*
Y18017D01*
X15199Y18417D01*
X15099D01*
X14999Y18317D01*
Y18117D01*
X15099Y18017D01*
X18740Y17423D02*
X18640Y17324D01*
Y17124D01*
X18740Y17024D01*
X19140D01*
X19240Y17124D01*
Y17324D01*
X19140Y17423D01*
X19240Y17623D02*
Y17823D01*
Y17723D01*
X18640D01*
X18740Y17623D01*
X29977Y19781D02*
Y20181D01*
X30177Y20381D01*
X30377Y20181D01*
Y19781D01*
Y20081D01*
X29977D01*
X30977Y19781D02*
X30577D01*
X30977Y20181D01*
Y20281D01*
X30877Y20381D01*
X30677D01*
X30577Y20281D01*
X28580Y19450D02*
Y20050D01*
X28880D01*
X28980Y19950D01*
Y19750D01*
X28880Y19650D01*
X28580D01*
X28780D02*
X28980Y19450D01*
X29180D02*
X29380D01*
X29280D01*
Y20050D01*
X29180Y19950D01*
X12874Y18606D02*
Y19006D01*
X13074Y19206D01*
X13274Y19006D01*
Y18606D01*
Y18906D01*
X12874D01*
X13474Y18606D02*
X13674D01*
X13574D01*
Y19206D01*
X13474Y19106D01*
X24220Y2100D02*
Y1100D01*
X24720D01*
X24887Y1267D01*
Y1933D01*
X24720Y2100D01*
X24220D01*
X25220Y1100D02*
Y2100D01*
X25720D01*
X25886Y1933D01*
Y1600D01*
X25720Y1433D01*
X25220D01*
X25553D02*
X25886Y1100D01*
X26219Y2100D02*
Y1100D01*
X26886D01*
X27219Y1600D02*
X27886D01*
X28219Y1100D02*
X28552D01*
X28385D01*
Y2100D01*
X28219Y1933D01*
X29718Y1100D02*
X29052D01*
X29718Y1766D01*
Y1933D01*
X29552Y2100D01*
X29218D01*
X29052Y1933D01*
X30052D02*
X30218Y2100D01*
X30551D01*
X30718Y1933D01*
Y1267D01*
X30551Y1100D01*
X30218D01*
X30052Y1267D01*
Y1933D01*
X31051D02*
X31218Y2100D01*
X31551D01*
X31718Y1933D01*
Y1267D01*
X31551Y1100D01*
X31218D01*
X31051Y1267D01*
Y1933D01*
X32051Y1100D02*
Y2100D01*
X32551D01*
X32717Y1933D01*
Y1600D01*
X32551Y1433D01*
X32051D01*
X33051Y1600D02*
X33717D01*
X34717Y1933D02*
X34550Y2100D01*
X34217D01*
X34050Y1933D01*
Y1267D01*
X34217Y1100D01*
X34550D01*
X34717Y1267D01*
X24668Y4350D02*
X25335D01*
X25001D01*
Y3350D01*
X26168Y4350D02*
X25835D01*
X25668Y4183D01*
Y3517D01*
X25835Y3350D01*
X26168D01*
X26334Y3517D01*
Y4183D01*
X26168Y4350D01*
X26668Y3350D02*
Y4350D01*
X27167D01*
X27334Y4183D01*
Y3850D01*
X27167Y3683D01*
X26668D01*
X28667Y4350D02*
Y3350D01*
X29333D01*
X30333Y4350D02*
X29667D01*
Y3350D01*
X30333D01*
X29667Y3850D02*
X30000D01*
X31333Y4183D02*
X31166Y4350D01*
X30833D01*
X30666Y4183D01*
Y3517D01*
X30833Y3350D01*
X31166D01*
X31333Y3517D01*
Y3850D01*
X31000D01*
X32332Y4350D02*
X31666D01*
Y3350D01*
X32332D01*
X31666Y3850D02*
X31999D01*
X32666Y3350D02*
Y4350D01*
X33332Y3350D01*
Y4350D01*
X33665D02*
Y3350D01*
X34165D01*
X34332Y3517D01*
Y4183D01*
X34165Y4350D01*
X33665D01*
D21*
X17748Y17079D02*
Y18260D01*
X16567Y17079D02*
Y18260D01*
X25028Y12870D02*
Y16177D01*
X20894Y12870D02*
Y16177D01*
X24201Y17004D02*
X25028Y16177D01*
X20894D02*
X21720Y17004D01*
X22394D01*
X23528D02*
X24201D01*
X20894Y12870D02*
X22394D01*
X23528D02*
X25028D01*
X13709Y13224D02*
X15382D01*
X9673D02*
X10992D01*
X15382D02*
Y13953D01*
Y15528D02*
Y16768D01*
X13709D02*
X15382D01*
X9673D02*
X10992D01*
X9673Y13224D02*
Y16768D01*
X30346Y19457D02*
X36346D01*
X30346Y11457D02*
Y19457D01*
X36346Y11457D02*
Y19457D01*
X30346Y11457D02*
X36346D01*
X10000Y20827D02*
X38740D01*
Y10000D02*
Y20827D01*
X10000Y10000D02*
Y20827D01*
Y10000D02*
X38740D01*
D32*
X17571Y18652D02*
G03*
X17571Y18652I-39J0D01*
G01*
X23000Y18193D02*
G03*
X23000Y18193I-39J0D01*
G01*
X30000Y19000D02*
G03*
X30000Y19000I-39J0D01*
G01*
X38374Y13457D02*
Y17457D01*
X37374Y13457D02*
X38374D01*
X37374D02*
Y17457D01*
X38374D01*
X34862Y12972D02*
Y13972D01*
X31862D02*
X34862D01*
X31862Y12972D02*
Y13972D01*
Y12972D02*
X34862D01*
X34846Y14760D02*
Y15760D01*
X31846D02*
X34846D01*
X31846Y14760D02*
Y15760D01*
Y14760D02*
X34846D01*
X34862Y16547D02*
Y17547D01*
X31862D02*
X34862D01*
X31862Y16547D02*
Y17547D01*
Y16547D02*
X34862D01*
D33*
X17275Y14728D02*
G03*
X17275Y14728I-79J0D01*
G01*
M02*
