G04 Layer_Color=8388736*
%FSLAX24Y24*%
%MOIN*%
G70*
G01*
G75*
%ADD20C,0.0100*%
%ADD21C,0.0050*%
%ADD34R,0.0552X0.0414*%
%ADD35R,0.0560X0.0426*%
%ADD36R,0.0359X0.0320*%
G04:AMPARAMS|DCode=37|XSize=37.9mil|YSize=19.7mil|CornerRadius=4mil|HoleSize=0mil|Usage=FLASHONLY|Rotation=270.000|XOffset=0mil|YOffset=0mil|HoleType=Round|Shape=RoundedRectangle|*
%AMROUNDEDRECTD37*
21,1,0.0379,0.0118,0,0,270.0*
21,1,0.0299,0.0197,0,0,270.0*
1,1,0.0079,-0.0059,-0.0150*
1,1,0.0079,-0.0059,0.0150*
1,1,0.0079,0.0059,0.0150*
1,1,0.0079,0.0059,-0.0150*
%
%ADD37ROUNDEDRECTD37*%
%ADD38R,0.0973X0.0682*%
G04:AMPARAMS|DCode=39|XSize=203.2mil|YSize=87.1mil|CornerRadius=12.4mil|HoleSize=0mil|Usage=FLASHONLY|Rotation=270.000|XOffset=0mil|YOffset=0mil|HoleType=Round|Shape=RoundedRectangle|*
%AMROUNDEDRECTD39*
21,1,0.2032,0.0623,0,0,270.0*
21,1,0.1784,0.0871,0,0,270.0*
1,1,0.0248,-0.0312,-0.0892*
1,1,0.0248,-0.0312,0.0892*
1,1,0.0248,0.0312,0.0892*
1,1,0.0248,0.0312,-0.0892*
%
%ADD39ROUNDEDRECTD39*%
%ADD40R,0.2481X0.1575*%
%ADD41R,0.1772X0.1339*%
%ADD42R,0.0320X0.0359*%
%ADD43C,0.0827*%
%ADD44C,0.0690*%
%ADD45R,0.0690X0.0690*%
%ADD46C,0.0749*%
%ADD47R,0.0749X0.0749*%
%ADD48C,0.0730*%
%ADD49R,0.0730X0.0730*%
%ADD50R,0.0749X0.0749*%
%ADD51C,0.1300*%
%ADD52C,0.0540*%
D20*
X24252Y2100D02*
Y1100D01*
X24752D01*
X24918Y1267D01*
Y1933D01*
X24752Y2100D01*
X24252D01*
X25251Y1100D02*
Y2100D01*
X25751D01*
X25918Y1933D01*
Y1600D01*
X25751Y1433D01*
X25251D01*
X25585D02*
X25918Y1100D01*
X26251Y2100D02*
Y1100D01*
X26918D01*
X27251Y1600D02*
X27917D01*
X28250Y1100D02*
X28584D01*
X28417D01*
Y2100D01*
X28250Y1933D01*
X29750Y1100D02*
X29083D01*
X29750Y1766D01*
Y1933D01*
X29583Y2100D01*
X29250D01*
X29083Y1933D01*
X30083D02*
X30250Y2100D01*
X30583D01*
X30750Y1933D01*
Y1267D01*
X30583Y1100D01*
X30250D01*
X30083Y1267D01*
Y1933D01*
X31083D02*
X31249Y2100D01*
X31583D01*
X31749Y1933D01*
Y1267D01*
X31583Y1100D01*
X31249D01*
X31083Y1267D01*
Y1933D01*
X32083Y1100D02*
Y2100D01*
X32582D01*
X32749Y1933D01*
Y1600D01*
X32582Y1433D01*
X32083D01*
X33082Y1600D02*
X33749D01*
X34748Y1933D02*
X34582Y2100D01*
X34248D01*
X34082Y1933D01*
Y1267D01*
X34248Y1100D01*
X34582D01*
X34748Y1267D01*
X22169Y4350D02*
X22835D01*
X22502D01*
Y3350D01*
X23669Y4350D02*
X23335D01*
X23169Y4183D01*
Y3517D01*
X23335Y3350D01*
X23669D01*
X23835Y3517D01*
Y4183D01*
X23669Y4350D01*
X24168Y3350D02*
Y4350D01*
X24668D01*
X24835Y4183D01*
Y3850D01*
X24668Y3683D01*
X24168D01*
X26834Y4183D02*
X26668Y4350D01*
X26334D01*
X26168Y4183D01*
Y4016D01*
X26334Y3850D01*
X26668D01*
X26834Y3683D01*
Y3517D01*
X26668Y3350D01*
X26334D01*
X26168Y3517D01*
X27667Y4350D02*
X27334D01*
X27167Y4183D01*
Y3517D01*
X27334Y3350D01*
X27667D01*
X27834Y3517D01*
Y4183D01*
X27667Y4350D01*
X28167D02*
Y3350D01*
X28834D01*
X29167Y4350D02*
Y3350D01*
X29667D01*
X29833Y3517D01*
Y4183D01*
X29667Y4350D01*
X29167D01*
X30833D02*
X30166D01*
Y3350D01*
X30833D01*
X30166Y3850D02*
X30500D01*
X31166Y3350D02*
Y4350D01*
X31666D01*
X31833Y4183D01*
Y3850D01*
X31666Y3683D01*
X31166D01*
X31499D02*
X31833Y3350D01*
X33165D02*
Y4350D01*
X33499Y4016D01*
X33832Y4350D01*
Y3350D01*
X34165D02*
Y4016D01*
X34498Y4350D01*
X34832Y4016D01*
Y3350D01*
Y3850D01*
X34165D01*
X35831Y4183D02*
X35665Y4350D01*
X35331D01*
X35165Y4183D01*
Y4016D01*
X35331Y3850D01*
X35665D01*
X35831Y3683D01*
Y3517D01*
X35665Y3350D01*
X35331D01*
X35165Y3517D01*
X36165Y4350D02*
Y3350D01*
Y3683D01*
X36831Y4350D01*
X36331Y3850D01*
X36831Y3350D01*
D21*
X10000Y20827D02*
X38740D01*
Y10000D02*
Y20827D01*
X10000Y10000D02*
Y20827D01*
Y10000D02*
X38740D01*
D34*
X11801Y19177D02*
D03*
D35*
Y19791D02*
D03*
D36*
X11220Y19230D02*
D03*
Y19738D02*
D03*
X16173Y17673D02*
D03*
Y18181D02*
D03*
X18142Y17665D02*
D03*
Y17157D02*
D03*
D37*
X17531Y18234D02*
D03*
X17157D02*
D03*
X16783D02*
D03*
Y17104D02*
D03*
X17157D02*
D03*
X17531D02*
D03*
D38*
X17157Y17669D02*
D03*
D39*
X22961Y16620D02*
D03*
Y13254D02*
D03*
D40*
X12350Y17535D02*
D03*
Y12457D02*
D03*
D41*
X15874Y14740D02*
D03*
D42*
X29152Y18957D02*
D03*
X28644D02*
D03*
D43*
X10854Y14996D02*
D03*
D44*
X30846Y15957D02*
D03*
X35846D02*
D03*
X30846Y14957D02*
D03*
Y13957D02*
D03*
Y12957D02*
D03*
Y11957D02*
D03*
Y16957D02*
D03*
Y17957D02*
D03*
X35846Y16957D02*
D03*
Y17957D02*
D03*
Y18957D02*
D03*
Y14957D02*
D03*
Y13957D02*
D03*
Y12957D02*
D03*
Y11957D02*
D03*
D45*
X30846Y18957D02*
D03*
D46*
X37874Y16957D02*
D03*
Y14957D02*
D03*
Y15957D02*
D03*
X34362Y13472D02*
D03*
X33362D02*
D03*
X34346Y15260D02*
D03*
X33346D02*
D03*
X34362Y17047D02*
D03*
X33362D02*
D03*
D47*
X37874Y13957D02*
D03*
D48*
X12961Y10787D02*
D03*
X14961D02*
D03*
X15961D02*
D03*
X16961D02*
D03*
X17961D02*
D03*
X18961D02*
D03*
X19961D02*
D03*
X21961D02*
D03*
X22961D02*
D03*
X23961D02*
D03*
X24961D02*
D03*
X25961D02*
D03*
X26961D02*
D03*
X12961Y19787D02*
D03*
X14961D02*
D03*
X15961D02*
D03*
X16961D02*
D03*
X18961D02*
D03*
X19961D02*
D03*
X20961D02*
D03*
X21961D02*
D03*
X22961D02*
D03*
X23961D02*
D03*
X24961D02*
D03*
X25961D02*
D03*
X26961D02*
D03*
D49*
X13961Y10787D02*
D03*
X20961D02*
D03*
X13961Y19787D02*
D03*
X17961D02*
D03*
D50*
X32362Y13472D02*
D03*
X32346Y15260D02*
D03*
X32362Y17047D02*
D03*
D51*
X10886Y10886D02*
D03*
X37854Y19941D02*
D03*
D52*
X37920Y18169D02*
D03*
X36870Y17957D02*
D03*
X28012Y20236D02*
D03*
X29882Y13051D02*
D03*
X32362Y10689D02*
D03*
X28110Y10787D02*
D03*
X29980Y17874D02*
D03*
X29193Y15709D02*
D03*
X25748Y17382D02*
D03*
X26240Y17874D02*
D03*
X25256D02*
D03*
X26240Y16890D02*
D03*
X25256D02*
D03*
X11045Y13781D02*
D03*
X11670Y15031D02*
D03*
X11045Y16281D02*
D03*
Y18781D02*
D03*
X12295Y11281D02*
D03*
Y13781D02*
D03*
X12920Y15031D02*
D03*
X12295Y16281D02*
D03*
Y18781D02*
D03*
X14170Y12531D02*
D03*
X13545Y13781D02*
D03*
X14170Y15031D02*
D03*
X13545Y16281D02*
D03*
X14170Y17531D02*
D03*
X15420Y12531D02*
D03*
X14795Y16281D02*
D03*
X15420Y17531D02*
D03*
X16670Y12531D02*
D03*
X17920D02*
D03*
X17295Y13781D02*
D03*
X19170Y12531D02*
D03*
X18545Y13781D02*
D03*
X19170Y15031D02*
D03*
Y17531D02*
D03*
X18545Y18781D02*
D03*
X20420Y12531D02*
D03*
X19795Y13781D02*
D03*
X20420Y15031D02*
D03*
X19795Y18781D02*
D03*
X21670Y12531D02*
D03*
X21045Y13781D02*
D03*
X21670Y15031D02*
D03*
X21045Y18781D02*
D03*
X22295D02*
D03*
X24170Y12531D02*
D03*
X24795Y18781D02*
D03*
X26045D02*
D03*
X29170Y17531D02*
D03*
X29795Y16281D02*
D03*
X32920Y12531D02*
D03*
X32295Y18781D02*
D03*
X33545Y11281D02*
D03*
X34170Y12531D02*
D03*
X33545Y18781D02*
D03*
X34795Y11281D02*
D03*
X36045D02*
D03*
X36670Y12531D02*
D03*
X37295Y11281D02*
D03*
X37920Y12531D02*
D03*
X37295Y18781D02*
D03*
M02*
