M48
;Layer_Color=9474304
;FILE_FORMAT=2:4
INCH,TZ
;TYPE=PLATED
T1F00S00C0.0250
T2F00S00C0.0350
T3F00S00C0.0433
%
T01
X12295Y11281
Y13781
X11045
X11670Y15031
X12920
X14170
X13545Y13781
X14170Y12531
X15420
X16670
X17920
X19170
X20420
X21670
X21045Y13781
X19795
X18545
X17295
X19170Y15031
X20420
X21670
X24170Y12531
X28110Y10787
X29882Y13051
X32920Y12531
X34170
X33545Y11281
X34795
X36045
X37295
X36670Y12531
X37920
X32362Y10689
X32295Y18781
X33545
X37295
X37920Y18169
X36870Y17957
X29980Y17874
X29170Y17531
X29193Y15709
X29795Y16281
X26240Y16890
X25256
X25748Y17382
X25256Y17874
X26240
X26045Y18781
X24795
X22295
X21045
X19795
X18545
X19170Y17531
X28012Y20236
X15420Y17531
X14170
X13545Y16281
X12295
X11045
Y18781
X12295
X14795Y16281
T02
X12961Y10787
X13961
X14961
X15961
X16961
X17961
X18961
X19961
X20961
X21961
X22961
X23961
X24961
X25961
X26961
Y19787
X25961
X24961
X23961
X22961
X21961
X20961
X19961
X18961
X17961
X16961
X15961
X14961
X13961
X12961
T03
X30846Y11957
Y12957
Y13957
Y14957
X32346Y15260
X33346
X34346
X35846Y14957
Y13957
Y12957
Y11957
X34362Y13472
X33362
X32362
X37874Y13957
Y14957
Y15957
Y16957
X35846
Y15957
Y17957
Y18957
X34362Y17047
X33362
X32362
X30846Y16957
Y15957
Y17957
Y18957
M30
