G04 Layer_Color=8421504*
%FSLAX24Y24*%
%MOIN*%
G70*
G01*
G75*
%ADD10R,0.0319X0.0280*%
%ADD11R,0.0512X0.0374*%
%ADD12R,0.0520X0.0386*%
%ADD13R,0.0280X0.0319*%
G04:AMPARAMS|DCode=14|XSize=31.9mil|YSize=28mil|CornerRadius=0mil|HoleSize=0mil|Usage=FLASHONLY|Rotation=45.000|XOffset=0mil|YOffset=0mil|HoleType=Round|Shape=Rectangle|*
%AMROTATEDRECTD14*
4,1,4,-0.0014,-0.0212,-0.0212,-0.0014,0.0014,0.0212,0.0212,0.0014,-0.0014,-0.0212,0.0*
%
%ADD14ROTATEDRECTD14*%

G04:AMPARAMS|DCode=15|XSize=199.2mil|YSize=83.1mil|CornerRadius=10.4mil|HoleSize=0mil|Usage=FLASHONLY|Rotation=270.000|XOffset=0mil|YOffset=0mil|HoleType=Round|Shape=RoundedRectangle|*
%AMROUNDEDRECTD15*
21,1,0.1992,0.0623,0,0,270.0*
21,1,0.1784,0.0831,0,0,270.0*
1,1,0.0208,-0.0312,-0.0892*
1,1,0.0208,-0.0312,0.0892*
1,1,0.0208,0.0312,0.0892*
1,1,0.0208,0.0312,-0.0892*
%
%ADD15ROUNDEDRECTD15*%
%ADD17R,0.1114X0.0382*%
%ADD18R,0.2441X0.1535*%
%ADD19R,0.1732X0.1299*%
%ADD21C,0.0050*%
G36*
X18268Y16187D02*
X17693D01*
Y16703D01*
X18268D01*
Y16187D01*
D02*
G37*
G36*
X16669Y16927D02*
X16094D01*
Y17443D01*
X16669D01*
Y16927D01*
D02*
G37*
G36*
Y16187D02*
X16094D01*
Y16703D01*
X16669D01*
Y16187D01*
D02*
G37*
G36*
X17469D02*
X16894D01*
Y16703D01*
X17469D01*
Y16187D01*
D02*
G37*
G36*
Y16927D02*
X16894D01*
Y17443D01*
X17469D01*
Y16927D01*
D02*
G37*
G36*
Y17667D02*
X16894D01*
Y18183D01*
X17469D01*
Y17667D01*
D02*
G37*
G36*
X18268D02*
X17693D01*
Y18183D01*
X18268D01*
Y17667D01*
D02*
G37*
G36*
Y16927D02*
X17693D01*
Y17443D01*
X18268D01*
Y16927D01*
D02*
G37*
G36*
X16669Y17667D02*
X16094D01*
Y18183D01*
X16669D01*
Y17667D01*
D02*
G37*
D10*
X11220Y19427D02*
D03*
Y19935D02*
D03*
X15150Y12500D02*
D03*
Y13008D02*
D03*
D11*
X11772Y19339D02*
D03*
D12*
Y19953D02*
D03*
D13*
X29152Y19154D02*
D03*
X28644D02*
D03*
X15996Y12250D02*
D03*
X16504D02*
D03*
X17496D02*
D03*
X18004D02*
D03*
X19504D02*
D03*
X18996D02*
D03*
X21504D02*
D03*
X20996D02*
D03*
X13996Y13039D02*
D03*
X14504D02*
D03*
X20785Y19055D02*
D03*
X20278D02*
D03*
D14*
X20271Y17150D02*
D03*
X20630Y16791D02*
D03*
D15*
X24256Y16817D02*
D03*
Y13451D02*
D03*
D17*
X19799Y18087D02*
D03*
Y16283D02*
D03*
D18*
X12350Y17732D02*
D03*
Y12654D02*
D03*
D19*
X15874Y14937D02*
D03*
D21*
X38740Y10000D02*
Y20960D01*
X10000Y10000D02*
X38740D01*
X10000Y20960D02*
X38740D01*
X10000Y10000D02*
Y20960D01*
M02*
