M48
;Layer_Color=9474304
;FILE_FORMAT=2:4
INCH,TZ
;TYPE=PLATED
T1F00S00C0.0250
T2F00S00C0.0280
T3F00S00C0.0350
T4F00S00C0.0433
%
T01
X10650Y12350
X14300Y12250
X14250Y14000
X20021Y12250
X22021
X25300Y13250
X29850
X28250Y10800
X35850Y11250
X35000Y12154
X36750
X35150Y17500
X31700Y19100
X29450Y18154
X26240Y18071
X25256
Y17087
X25750Y17550
X26240Y17087
X26400Y19154
X24850Y19150
X21450Y19050
X19550Y17100
X27950Y20400
X14250Y17500
X10650Y18100
X11200Y18900
T02
X13000Y14000
X21000
X23000
X24000Y12000
X34000
X37000Y18000
X30000Y16000
X26000
X21000Y18000
X15000
X12000Y16000
T03
X12961Y10984
X13961
X14961
X15961
X16961
X17961
X18961
X19961
X20961
X21961
X22961
X23961
X24961
X25961
X26961
Y19984
X25961
X24961
X23961
X22961
X21961
X20961
X19961
X18961
X17961
X16961
X15961
X14961
X13961
X12961
T04
X16419Y13465
X17419
X18419
X19419
X20419
X21419
X30846Y13154
Y14154
Y15154
Y12154
X32362Y13669
X33362
X34362
X34346Y15457
X33346
X32346
X35846Y15154
Y14154
Y13154
Y12154
X37874Y14154
Y15154
Y16154
Y17154
X35846
Y16154
Y18154
Y19154
X34362Y17244
X33362
X32362
X30846Y17154
Y16154
Y18154
Y19154
M30
