G04 Layer_Physical_Order=2*
G04 Layer_Color=36540*
%FSLAX24Y24*%
%MOIN*%
G70*
G01*
G75*
%ADD21C,0.0050*%
%ADD32C,0.0100*%
D21*
X38740Y10000D02*
Y20960D01*
X10000Y10000D02*
X38740D01*
X10000Y20960D02*
X38740D01*
X10000Y10000D02*
Y20960D01*
D32*
X24252Y2100D02*
Y1100D01*
X24752D01*
X24918Y1267D01*
Y1933D01*
X24752Y2100D01*
X24252D01*
X25251Y1100D02*
Y2100D01*
X25751D01*
X25918Y1933D01*
Y1600D01*
X25751Y1433D01*
X25251D01*
X25585D02*
X25918Y1100D01*
X26251Y2100D02*
Y1100D01*
X26918D01*
X27251Y1600D02*
X27917D01*
X28250Y1100D02*
X28584D01*
X28417D01*
Y2100D01*
X28250Y1933D01*
X29750Y1100D02*
X29083D01*
X29750Y1766D01*
Y1933D01*
X29583Y2100D01*
X29250D01*
X29083Y1933D01*
X30083D02*
X30250Y2100D01*
X30583D01*
X30750Y1933D01*
Y1267D01*
X30583Y1100D01*
X30250D01*
X30083Y1267D01*
Y1933D01*
X31083D02*
X31249Y2100D01*
X31583D01*
X31749Y1933D01*
Y1267D01*
X31583Y1100D01*
X31249D01*
X31083Y1267D01*
Y1933D01*
X32083Y1100D02*
Y2100D01*
X32582D01*
X32749Y1933D01*
Y1600D01*
X32582Y1433D01*
X32083D01*
X33082Y1600D02*
X33749D01*
X34748Y1933D02*
X34582Y2100D01*
X34248D01*
X34082Y1933D01*
Y1267D01*
X34248Y1100D01*
X34582D01*
X34748Y1267D01*
X17837Y4350D02*
Y3350D01*
X18504D01*
X18837D02*
Y4016D01*
X19170Y4350D01*
X19503Y4016D01*
Y3350D01*
Y3850D01*
X18837D01*
X19836Y4350D02*
Y4183D01*
X20170Y3850D01*
X20503Y4183D01*
Y4350D01*
X20170Y3850D02*
Y3350D01*
X21503Y4350D02*
X20836D01*
Y3350D01*
X21503D01*
X20836Y3850D02*
X21169D01*
X21836Y3350D02*
Y4350D01*
X22336D01*
X22502Y4183D01*
Y3850D01*
X22336Y3683D01*
X21836D01*
X22169D02*
X22502Y3350D01*
X24502D02*
X23835D01*
X24502Y4016D01*
Y4183D01*
X24335Y4350D01*
X24002D01*
X23835Y4183D01*
X25835Y3850D02*
X26501D01*
X27834Y4350D02*
X28167D01*
X28000D01*
Y3350D01*
X27834D01*
X28167D01*
X28667D02*
Y4350D01*
X29333Y3350D01*
Y4350D01*
X29667Y3350D02*
Y4350D01*
X30333Y3350D01*
Y4350D01*
X31333D02*
X30666D01*
Y3350D01*
X31333D01*
X30666Y3850D02*
X31000D01*
X31666Y3350D02*
Y4350D01*
X32166D01*
X32332Y4183D01*
Y3850D01*
X32166Y3683D01*
X31666D01*
X31999D02*
X32332Y3350D01*
X34332Y4183D02*
X34165Y4350D01*
X33832D01*
X33665Y4183D01*
Y4016D01*
X33832Y3850D01*
X34165D01*
X34332Y3683D01*
Y3517D01*
X34165Y3350D01*
X33832D01*
X33665Y3517D01*
X34665Y4350D02*
X34998D01*
X34832D01*
Y3350D01*
X34665D01*
X34998D01*
X36165Y4183D02*
X35998Y4350D01*
X35665D01*
X35498Y4183D01*
Y3517D01*
X35665Y3350D01*
X35998D01*
X36165Y3517D01*
Y3850D01*
X35831D01*
X36498Y3350D02*
Y4350D01*
X37164Y3350D01*
Y4350D01*
X37497Y3350D02*
Y4016D01*
X37831Y4350D01*
X38164Y4016D01*
Y3350D01*
Y3850D01*
X37497D01*
X38497Y4350D02*
Y3350D01*
X39164D01*
X41163D02*
X40496D01*
X41163Y4016D01*
Y4183D01*
X40996Y4350D01*
X40663D01*
X40496Y4183D01*
M02*
